<svg width="188" height="51" viewBox="0 0 188 51" fill="none" xmlns="http://www.w3.org/2000/svg">
<rect x="0.617188" y="0.882324" width="187.172" height="50" rx="10" fill="#F5F5F5"/>
<path d="M67.1719 28.3379H69.3203L73.9932 38.8848H75.1797V40.4473H68.9297V38.8848H70.4922L69.7988 37.3223H65.3848L64.7354 38.8848H67.7578V40.4473H61.5078V38.8848H62.7822L67.1719 28.3379ZM66.0342 35.7598H69.1055L67.8945 33.0254C67.7383 32.6673 67.6146 32.3158 67.5234 31.9707C67.3965 32.4199 67.2793 32.7715 67.1719 33.0254L66.0342 35.7598ZM76.1562 40.4473V38.8848H77.7188V29.9004H76.1562V28.3379H81.2344C82.416 28.3379 83.3421 28.3753 84.0127 28.4502C84.6865 28.5251 85.2106 28.6423 85.585 28.8018C85.9626 28.958 86.3092 29.194 86.625 29.5098C86.9082 29.793 87.1214 30.1494 87.2646 30.5791C87.4111 31.0055 87.4844 31.4629 87.4844 31.9512C87.4844 32.3483 87.4323 32.7161 87.3281 33.0547C87.2272 33.39 87.0824 33.6878 86.8936 33.9482C86.708 34.2054 86.4785 34.4365 86.2051 34.6416C85.9349 34.8434 85.6354 35.0143 85.3066 35.1543C84.9779 35.2943 84.6133 35.4098 84.2129 35.501C83.8158 35.5921 83.404 35.6589 82.9775 35.7012C82.5544 35.7402 82.1035 35.7598 81.625 35.7598H80.8438V38.8848H82.7969V40.4473H76.1562ZM80.8438 34.1973H81.625C83.1875 34.1973 83.9688 33.4811 83.9688 32.0488C83.9688 31.8014 83.9508 31.5768 83.915 31.375C83.8825 31.1732 83.8206 30.9779 83.7295 30.7891C83.6383 30.6003 83.5212 30.4424 83.3779 30.3154C83.2347 30.1885 83.0475 30.0876 82.8164 30.0127C82.5853 29.9378 82.3184 29.9004 82.0156 29.9004H80.8438V34.1973ZM88.3633 40.4473V38.8848H89.9258V29.9004H88.3633V28.3379H93.4414C94.623 28.3379 95.5492 28.3753 96.2197 28.4502C96.8936 28.5251 97.4176 28.6423 97.792 28.8018C98.1696 28.958 98.5163 29.194 98.832 29.5098C99.1152 29.793 99.3285 30.1494 99.4717 30.5791C99.6182 31.0055 99.6914 31.4629 99.6914 31.9512C99.6914 32.3483 99.6393 32.7161 99.5352 33.0547C99.4342 33.39 99.2894 33.6878 99.1006 33.9482C98.915 34.2054 98.6855 34.4365 98.4121 34.6416C98.1419 34.8434 97.8424 35.0143 97.5137 35.1543C97.1849 35.2943 96.8203 35.4098 96.4199 35.501C96.0228 35.5921 95.611 35.6589 95.1846 35.7012C94.7614 35.7402 94.3105 35.7598 93.832 35.7598H93.0508V38.8848H95.0039V40.4473H88.3633ZM93.0508 34.1973H93.832C95.3945 34.1973 96.1758 33.4811 96.1758 32.0488C96.1758 31.8014 96.1579 31.5768 96.1221 31.375C96.0895 31.1732 96.0277 30.9779 95.9365 30.7891C95.8454 30.6003 95.7282 30.4424 95.585 30.3154C95.4417 30.1885 95.2546 30.0876 95.0234 30.0127C94.7923 29.9378 94.5254 29.9004 94.2227 29.9004H93.0508V34.1973ZM109.359 31.0723C109.359 31.3815 109.431 31.6598 109.574 31.9072C109.717 32.1514 109.91 32.3564 110.15 32.5225C110.391 32.6885 110.668 32.8415 110.98 32.9814C111.293 33.1214 111.622 33.2549 111.967 33.3818C112.312 33.5055 112.657 33.6357 113.002 33.7725C113.347 33.9059 113.676 34.0671 113.988 34.2559C114.301 34.4414 114.577 34.6514 114.818 34.8857C115.059 35.1169 115.251 35.4082 115.395 35.7598C115.538 36.1081 115.609 36.4987 115.609 36.9316C115.609 37.4622 115.492 37.957 115.258 38.416C115.023 38.875 114.701 39.2689 114.291 39.5977C113.884 39.9232 113.389 40.1787 112.807 40.3643C112.224 40.5498 111.596 40.6426 110.922 40.6426C110.661 40.6426 110.386 40.6247 110.097 40.5889C109.81 40.5563 109.506 40.4993 109.184 40.418C108.865 40.3366 108.557 40.2373 108.261 40.1201C107.965 40.0029 107.68 39.8548 107.406 39.6758C107.136 39.4935 106.9 39.2917 106.698 39.0703C106.496 38.849 106.335 38.5885 106.215 38.2891C106.098 37.9863 106.039 37.6641 106.039 37.3223C106.039 36.8893 106.19 36.5215 106.493 36.2188C106.799 35.9128 107.169 35.7598 107.602 35.7598C108.035 35.7598 108.402 35.9128 108.705 36.2188C109.011 36.5215 109.164 36.8893 109.164 37.3223C109.164 37.6022 109.096 37.861 108.959 38.0986C108.826 38.333 108.643 38.5202 108.412 38.6602C108.9 38.9401 109.542 39.0801 110.336 39.0801C111.042 39.0801 111.576 38.971 111.938 38.7529C112.302 38.5348 112.484 38.1882 112.484 37.7129C112.484 37.4036 112.413 37.127 112.27 36.8828C112.126 36.6354 111.934 36.4287 111.693 36.2627C111.452 36.0967 111.176 35.9437 110.863 35.8037C110.551 35.6637 110.222 35.5319 109.877 35.4082C109.532 35.2812 109.187 35.151 108.842 35.0176C108.497 34.8809 108.168 34.7197 107.855 34.5342C107.543 34.3454 107.266 34.1354 107.025 33.9043C106.785 33.6699 106.592 33.3786 106.449 33.0303C106.306 32.6787 106.234 32.2865 106.234 31.8535C106.234 31.3197 106.34 30.8249 106.552 30.3691C106.767 29.9102 107.066 29.5179 107.45 29.1924C107.838 28.8636 108.313 28.6064 108.876 28.4209C109.439 28.2354 110.056 28.1426 110.727 28.1426C110.987 28.1426 111.257 28.1605 111.537 28.1963C111.82 28.2288 112.115 28.2858 112.421 28.3672C112.73 28.4486 113.026 28.5479 113.31 28.665C113.593 28.7822 113.863 28.932 114.12 29.1143C114.381 29.2933 114.605 29.4935 114.794 29.7148C114.983 29.9362 115.132 30.1966 115.243 30.4961C115.357 30.7956 115.414 31.1178 115.414 31.4629C115.414 31.8958 115.261 32.2653 114.955 32.5713C114.652 32.874 114.285 33.0254 113.852 33.0254C113.419 33.0254 113.049 32.874 112.743 32.5713C112.44 32.2653 112.289 31.8958 112.289 31.4629C112.289 31.1732 112.362 30.9079 112.509 30.667C112.655 30.4229 112.849 30.2324 113.09 30.0957C112.657 29.8353 112.064 29.7051 111.312 29.7051C110.626 29.7051 110.128 29.8125 109.818 30.0273C109.512 30.2389 109.359 30.5872 109.359 31.0723ZM119.125 29.5098H120.102V31.4629H122.836V33.0254H120.102V38.1035C120.102 38.3249 120.163 38.5104 120.287 38.6602C120.414 38.8099 120.613 38.8848 120.883 38.8848C121.186 38.8848 121.443 38.7855 121.654 38.5869C121.866 38.3851 121.999 38.0938 122.055 37.7129L123.227 37.9082C123.178 38.2891 123.083 38.6423 122.943 38.9678C122.807 39.29 122.628 39.5781 122.406 39.832C122.185 40.0827 121.91 40.2812 121.581 40.4277C121.256 40.571 120.893 40.6426 120.492 40.6426C119.519 40.6426 118.754 40.4163 118.197 39.9639C117.644 39.5081 117.367 38.888 117.367 38.1035V33.0254H116.391V31.4629H116.586C117.087 31.4629 117.53 31.3197 117.914 31.0332C118.298 30.7467 118.702 30.2389 119.125 29.5098ZM126.962 31.6338C127.535 31.4092 128.142 31.2969 128.783 31.2969C129.424 31.2969 130.03 31.4092 130.6 31.6338C131.173 31.8584 131.671 32.1725 132.094 32.5762C132.517 32.9766 132.851 33.4714 133.095 34.0605C133.342 34.6497 133.466 35.291 133.466 35.9844C133.466 36.6777 133.342 37.319 133.095 37.9082C132.851 38.4974 132.517 38.9938 132.094 39.3975C131.671 39.7979 131.173 40.1104 130.6 40.335C130.03 40.5596 129.424 40.6719 128.783 40.6719C128.142 40.6719 127.535 40.5596 126.962 40.335C126.392 40.1104 125.896 39.7979 125.473 39.3975C125.053 38.9938 124.719 38.4974 124.472 37.9082C124.228 37.319 124.105 36.6777 124.105 35.9844C124.105 35.291 124.228 34.6497 124.472 34.0605C124.719 33.4714 125.053 32.9766 125.473 32.5762C125.896 32.1725 126.392 31.8584 126.962 31.6338ZM128.783 32.8594C128.555 32.8594 128.352 32.8919 128.173 32.957C127.994 33.0221 127.829 33.1296 127.68 33.2793C127.53 33.429 127.406 33.6227 127.309 33.8604C127.214 34.098 127.139 34.3942 127.084 34.749C127.032 35.1038 127.006 35.5156 127.006 35.9844C127.006 36.4531 127.032 36.8649 127.084 37.2197C127.139 37.5745 127.214 37.8708 127.309 38.1084C127.406 38.346 127.53 38.5397 127.68 38.6895C127.829 38.8392 127.994 38.9466 128.173 39.0117C128.352 39.0768 128.555 39.1094 128.783 39.1094C129.07 39.1094 129.319 39.0557 129.53 38.9482C129.742 38.8376 129.926 38.6618 130.082 38.4209C130.242 38.18 130.36 37.8561 130.438 37.4492C130.52 37.0423 130.561 36.554 130.561 35.9844C130.561 35.4147 130.52 34.9264 130.438 34.5195C130.36 34.1126 130.242 33.7887 130.082 33.5479C129.926 33.307 129.742 33.1328 129.53 33.0254C129.319 32.9147 129.07 32.8594 128.783 32.8594ZM134.34 31.4629H137.372L137.987 32.6494C138.563 31.7282 139.379 31.2676 140.434 31.2676C141.14 31.2676 141.7 31.4857 142.113 31.9219C142.53 32.3548 142.738 32.918 142.738 33.6113C142.738 34.0443 142.585 34.4137 142.279 34.7197C141.977 35.0225 141.609 35.1738 141.176 35.1738C140.743 35.1738 140.373 35.0225 140.067 34.7197C139.765 34.4137 139.613 34.0443 139.613 33.6113C139.613 33.4355 139.641 33.2663 139.696 33.1035C139.608 33.0514 139.516 33.0254 139.418 33.0254C139.2 33.0254 138.974 33.1686 138.739 33.4551C138.508 33.7383 138.285 34.1631 138.07 34.7295L138.051 38.8848H140.199V40.4473H134.34V38.8848H135.316V33.0254H134.34V31.4629ZM146.146 36.541C146.176 36.9186 146.238 37.2555 146.332 37.5518C146.426 37.848 146.54 38.0905 146.674 38.2793C146.811 38.4681 146.968 38.6243 147.147 38.748C147.326 38.8685 147.51 38.9548 147.699 39.0068C147.888 39.0557 148.09 39.0801 148.305 39.0801C148.992 39.0801 149.527 38.9482 149.911 38.6846C150.299 38.4176 150.608 38.0075 150.839 37.4541L152.138 37.9033C152.021 38.2191 151.871 38.5169 151.688 38.7969C151.509 39.0736 151.293 39.3291 151.039 39.5635C150.785 39.7979 150.502 39.9997 150.189 40.1689C149.88 40.335 149.53 40.4652 149.14 40.5596C148.749 40.654 148.337 40.7012 147.904 40.7012C147.263 40.7012 146.656 40.5889 146.083 40.3643C145.513 40.1396 145.017 39.8271 144.594 39.4268C144.174 39.0231 143.84 38.5267 143.593 37.9375C143.349 37.3483 143.227 36.707 143.227 36.0137C143.227 35.3203 143.349 34.6758 143.593 34.0801C143.84 33.4844 144.174 32.9831 144.594 32.5762C145.017 32.166 145.513 31.8454 146.083 31.6143C146.656 31.3831 147.263 31.2676 147.904 31.2676C148.546 31.2676 149.151 31.3831 149.721 31.6143C150.294 31.8454 150.79 32.166 151.21 32.5762C151.633 32.9831 151.967 33.4844 152.211 34.0801C152.458 34.6758 152.582 35.3203 152.582 36.0137L152.46 36.541H146.146ZM146.181 34.9785H149.628C149.543 34.2298 149.356 33.6846 149.066 33.3428C148.777 33.001 148.393 32.8301 147.914 32.8301C147.676 32.8301 147.463 32.8691 147.274 32.9473C147.086 33.0221 146.916 33.1442 146.767 33.3135C146.617 33.4795 146.492 33.7025 146.391 33.9824C146.293 34.2591 146.223 34.5911 146.181 34.9785Z" fill="#087DA7"/>
<path d="M66.7188 15.3169H62.9688V14.3794H63.9062V8.98877H62.9688V8.05127H66.7188C67.1387 8.05127 67.5352 8.09814 67.9082 8.19189C68.2812 8.28369 68.6113 8.4126 68.8984 8.57861C69.1875 8.74268 69.4463 8.93799 69.6748 9.16455C69.9053 9.39111 70.0947 9.63916 70.2432 9.90869C70.3936 10.1782 70.5078 10.4634 70.5859 10.7642C70.6641 11.063 70.7031 11.3696 70.7031 11.6841C70.7031 11.9985 70.6641 12.3062 70.5859 12.6069C70.5078 12.9058 70.3936 13.1899 70.2432 13.4595C70.0947 13.729 69.9053 13.9771 69.6748 14.2036C69.4463 14.4302 69.1875 14.6265 68.8984 14.7925C68.6113 14.9565 68.2812 15.0854 67.9082 15.1792C67.5352 15.271 67.1387 15.3169 66.7188 15.3169ZM66.7188 14.3794C67.0234 14.3794 67.2959 14.312 67.5361 14.1772C67.7764 14.0405 67.9727 13.8511 68.125 13.6089C68.2793 13.3667 68.3955 13.0835 68.4736 12.7593C68.5537 12.4331 68.5938 12.0747 68.5938 11.6841C68.5938 11.3716 68.5703 11.0806 68.5234 10.811C68.4766 10.5415 68.4033 10.2944 68.3037 10.0698C68.2041 9.84326 68.0811 9.65088 67.9346 9.49268C67.79 9.33252 67.6143 9.2085 67.4072 9.12061C67.2002 9.03271 66.9707 8.98877 66.7188 8.98877H65.7812V14.3794H66.7188ZM73.0029 10.0288C73.3467 9.89404 73.7109 9.82666 74.0957 9.82666C74.4805 9.82666 74.8438 9.89404 75.1855 10.0288C75.5293 10.1636 75.8281 10.3521 76.082 10.5942C76.3359 10.8345 76.5361 11.1313 76.6826 11.4849C76.8311 11.8384 76.9053 12.2231 76.9053 12.6392C76.9053 13.0552 76.8311 13.4399 76.6826 13.7935C76.5361 14.147 76.3359 14.4448 76.082 14.687C75.8281 14.9272 75.5293 15.1147 75.1855 15.2495C74.8438 15.3843 74.4805 15.4517 74.0957 15.4517C73.7109 15.4517 73.3467 15.3843 73.0029 15.2495C72.6611 15.1147 72.3633 14.9272 72.1094 14.687C71.8574 14.4448 71.6572 14.147 71.5088 13.7935C71.3623 13.4399 71.2891 13.0552 71.2891 12.6392C71.2891 12.2231 71.3623 11.8384 71.5088 11.4849C71.6572 11.1313 71.8574 10.8345 72.1094 10.5942C72.3633 10.3521 72.6611 10.1636 73.0029 10.0288ZM74.0957 10.7642C73.959 10.7642 73.8369 10.7837 73.7295 10.8228C73.6221 10.8618 73.5234 10.9263 73.4336 11.0161C73.3438 11.106 73.2695 11.2222 73.2109 11.3647C73.1543 11.5073 73.1094 11.6851 73.0762 11.8979C73.0449 12.1108 73.0293 12.3579 73.0293 12.6392C73.0293 12.9204 73.0449 13.1675 73.0762 13.3804C73.1094 13.5933 73.1543 13.771 73.2109 13.9136C73.2695 14.0562 73.3438 14.1724 73.4336 14.2622C73.5234 14.3521 73.6221 14.4165 73.7295 14.4556C73.8369 14.4946 73.959 14.5142 74.0957 14.5142C74.2676 14.5142 74.417 14.4819 74.5439 14.4175C74.6709 14.3511 74.7812 14.2456 74.875 14.1011C74.9707 13.9565 75.042 13.7622 75.0889 13.5181C75.1377 13.2739 75.1621 12.981 75.1621 12.6392C75.1621 12.2974 75.1377 12.0044 75.0889 11.7603C75.042 11.5161 74.9707 11.3218 74.875 11.1772C74.7812 11.0327 74.6709 10.9282 74.5439 10.8638C74.417 10.7974 74.2676 10.7642 74.0957 10.7642ZM77.1953 9.92627H80.4766V10.8638H79.5566L80.3447 12.9731C80.4092 13.145 80.4824 13.3892 80.5645 13.7056C80.6445 13.3892 80.7148 13.145 80.7754 12.9731L81.5312 10.8638H81.0625V9.92627H83.1719V10.8638H82.5977L83.3887 12.9731C83.4531 13.145 83.5264 13.3892 83.6084 13.7056C83.6924 13.3716 83.7617 13.1274 83.8164 12.9731L84.5723 10.8638H83.7578V9.92627H86.2188V10.8638H85.5977L83.9922 15.3169H82.7031L82.0703 13.5591C81.9941 13.3481 81.9131 13.0747 81.8271 12.7388C81.7412 13.0767 81.6602 13.3501 81.584 13.5591L80.9512 15.3169H79.3516L77.7461 10.8638H77.1953V9.92627ZM90.5547 9.80908C90.8281 9.80908 91.0674 9.84619 91.2725 9.92041C91.4775 9.99463 91.6455 10.0972 91.7764 10.228C91.9072 10.3569 92.0127 10.522 92.0928 10.7231C92.1748 10.9224 92.2314 11.1372 92.2627 11.3677C92.2959 11.5962 92.3125 11.8579 92.3125 12.1528V14.3794H92.8984V15.3169H90.0859V14.3794H90.6719V12.0356C90.6719 11.7271 90.6436 11.4868 90.5869 11.3149C90.5322 11.1431 90.4521 11.0249 90.3467 10.9604C90.2432 10.896 90.1016 10.8638 89.9219 10.8638C89.7578 10.8638 89.5898 10.9331 89.418 11.0718C89.2461 11.2104 89.083 11.4038 88.9287 11.6519L88.9141 14.3794H89.5V15.3169H86.6875V14.3794H87.2734V10.8638H86.6875V9.92627H88.5068L88.917 10.7202C88.9893 10.5894 89.0723 10.4722 89.166 10.3687C89.2617 10.2632 89.375 10.1675 89.5059 10.0815C89.6387 9.99365 89.7939 9.92627 89.9717 9.87939C90.1494 9.83252 90.3438 9.80908 90.5547 9.80908ZM93.3672 8.05127H95.5938V14.3794H96.1797V15.3169H93.3672V14.3794H93.9531V8.98877H93.3672V8.05127ZM98.3037 10.0288C98.6475 9.89404 99.0117 9.82666 99.3965 9.82666C99.7812 9.82666 100.145 9.89404 100.486 10.0288C100.83 10.1636 101.129 10.3521 101.383 10.5942C101.637 10.8345 101.837 11.1313 101.983 11.4849C102.132 11.8384 102.206 12.2231 102.206 12.6392C102.206 13.0552 102.132 13.4399 101.983 13.7935C101.837 14.147 101.637 14.4448 101.383 14.687C101.129 14.9272 100.83 15.1147 100.486 15.2495C100.145 15.3843 99.7812 15.4517 99.3965 15.4517C99.0117 15.4517 98.6475 15.3843 98.3037 15.2495C97.9619 15.1147 97.6641 14.9272 97.4102 14.687C97.1582 14.4448 96.958 14.147 96.8096 13.7935C96.6631 13.4399 96.5898 13.0552 96.5898 12.6392C96.5898 12.2231 96.6631 11.8384 96.8096 11.4849C96.958 11.1313 97.1582 10.8345 97.4102 10.5942C97.6641 10.3521 97.9619 10.1636 98.3037 10.0288ZM99.3965 10.7642C99.2598 10.7642 99.1377 10.7837 99.0303 10.8228C98.9229 10.8618 98.8242 10.9263 98.7344 11.0161C98.6445 11.106 98.5703 11.2222 98.5117 11.3647C98.4551 11.5073 98.4102 11.6851 98.377 11.8979C98.3457 12.1108 98.3301 12.3579 98.3301 12.6392C98.3301 12.9204 98.3457 13.1675 98.377 13.3804C98.4102 13.5933 98.4551 13.771 98.5117 13.9136C98.5703 14.0562 98.6445 14.1724 98.7344 14.2622C98.8242 14.3521 98.9229 14.4165 99.0303 14.4556C99.1377 14.4946 99.2598 14.5142 99.3965 14.5142C99.5684 14.5142 99.7178 14.4819 99.8447 14.4175C99.9717 14.3511 100.082 14.2456 100.176 14.1011C100.271 13.9565 100.343 13.7622 100.39 13.5181C100.438 13.2739 100.463 12.981 100.463 12.6392C100.463 12.2974 100.438 12.0044 100.39 11.7603C100.343 11.5161 100.271 11.3218 100.176 11.1772C100.082 11.0327 99.9717 10.9282 99.8447 10.8638C99.7178 10.7974 99.5684 10.7642 99.3965 10.7642ZM107.77 11.7866V14.3794H108.355V15.3169H106.53L106.27 14.7075C106.07 14.9927 105.839 15.188 105.575 15.2935C105.313 15.3989 104.947 15.4517 104.477 15.4517C104.232 15.4517 104.005 15.4087 103.794 15.3228C103.585 15.2388 103.406 15.1235 103.258 14.9771C103.111 14.8306 102.996 14.6548 102.912 14.4497C102.83 14.2446 102.789 14.0249 102.789 13.7905C102.789 13.3862 102.947 13.0513 103.264 12.7856C103.58 12.5181 103.984 12.3843 104.477 12.3843C104.873 12.3843 105.201 12.4224 105.461 12.4985C105.721 12.5728 105.943 12.6919 106.129 12.856V11.6138C106.129 11.438 106.104 11.2915 106.056 11.1743C106.009 11.0552 105.938 10.9644 105.842 10.9019C105.746 10.8374 105.639 10.7925 105.52 10.7671C105.4 10.7417 105.258 10.729 105.092 10.729C104.959 10.729 104.839 10.7573 104.731 10.814C104.792 10.9409 104.822 11.0747 104.822 11.2153C104.822 11.4751 104.73 11.6968 104.547 11.8804C104.365 12.062 104.145 12.1528 103.885 12.1528C103.625 12.1528 103.403 12.062 103.22 11.8804C103.038 11.6968 102.947 11.4751 102.947 11.2153C102.947 11.0825 102.973 10.9575 103.023 10.8403C103.076 10.7231 103.148 10.6206 103.24 10.5327C103.318 10.4507 103.399 10.3774 103.483 10.313C103.567 10.2466 103.673 10.1812 103.8 10.1167C103.929 10.0503 104.068 9.99561 104.219 9.95264C104.369 9.90967 104.549 9.87549 104.758 9.8501C104.969 9.82275 105.199 9.80908 105.449 9.80908C105.773 9.80908 106.078 9.85693 106.363 9.95264C106.648 10.0483 106.895 10.1812 107.102 10.3511C107.309 10.521 107.472 10.73 107.591 10.978C107.71 11.2261 107.77 11.4956 107.77 11.7866ZM106.129 14.0161V13.6118C106.008 13.4966 105.871 13.3999 105.719 13.3218C105.568 13.2417 105.429 13.2017 105.3 13.2017C105.022 13.2017 104.827 13.2485 104.714 13.3423C104.601 13.4341 104.544 13.5835 104.544 13.7905C104.544 14.0386 104.593 14.2212 104.69 14.3384C104.788 14.4556 104.97 14.5142 105.235 14.5142C105.386 14.5142 105.542 14.4663 105.704 14.3706C105.868 14.2729 106.01 14.1548 106.129 14.0161ZM110.813 15.4517C110.356 15.4517 109.969 15.3345 109.65 15.1001C109.332 14.8657 109.095 14.5386 108.938 14.1187C108.784 13.6987 108.707 13.1987 108.707 12.6187C108.707 12.1948 108.762 11.8071 108.871 11.4556C108.982 11.104 109.137 10.8081 109.334 10.5679C109.533 10.3257 109.772 10.1392 110.052 10.0083C110.333 9.87549 110.641 9.80908 110.975 9.80908C111.143 9.80908 111.301 9.82471 111.449 9.85596C111.598 9.88525 111.724 9.92236 111.827 9.96729C111.933 10.0122 112.032 10.0679 112.126 10.1343C112.22 10.2007 112.295 10.2632 112.352 10.3218C112.41 10.3804 112.467 10.4458 112.521 10.5181V8.98877H111.936V8.05127H114.162V14.3794H114.748V15.3169H113.008L112.653 14.6372C112.577 14.7427 112.491 14.8394 112.396 14.9272C112.009 15.2769 111.481 15.4517 110.813 15.4517ZM112.521 11.5112C112.299 11.1011 111.996 10.896 111.613 10.896C111.227 10.896 110.938 11.0474 110.749 11.3501C110.562 11.6528 110.468 12.0825 110.468 12.6392C110.468 12.9009 110.498 13.1431 110.559 13.3657C110.621 13.5864 110.703 13.77 110.805 13.9165C110.908 14.063 111.026 14.1772 111.159 14.2593C111.292 14.3394 111.431 14.3794 111.575 14.3794C111.771 14.3794 111.943 14.3257 112.094 14.2183C112.246 14.1089 112.389 13.9478 112.521 13.7349V11.5112ZM120.218 10.0288C120.562 9.89404 120.926 9.82666 121.311 9.82666C121.695 9.82666 122.059 9.89404 122.4 10.0288C122.744 10.1636 123.043 10.3521 123.297 10.5942C123.551 10.8345 123.751 11.1313 123.897 11.4849C124.046 11.8384 124.12 12.2231 124.12 12.6392C124.12 13.0552 124.046 13.4399 123.897 13.7935C123.751 14.147 123.551 14.4448 123.297 14.687C123.043 14.9272 122.744 15.1147 122.4 15.2495C122.059 15.3843 121.695 15.4517 121.311 15.4517C120.926 15.4517 120.562 15.3843 120.218 15.2495C119.876 15.1147 119.578 14.9272 119.324 14.687C119.072 14.4448 118.872 14.147 118.724 13.7935C118.577 13.4399 118.504 13.0552 118.504 12.6392C118.504 12.2231 118.577 11.8384 118.724 11.4849C118.872 11.1313 119.072 10.8345 119.324 10.5942C119.578 10.3521 119.876 10.1636 120.218 10.0288ZM121.311 10.7642C121.174 10.7642 121.052 10.7837 120.944 10.8228C120.837 10.8618 120.738 10.9263 120.648 11.0161C120.559 11.106 120.484 11.2222 120.426 11.3647C120.369 11.5073 120.324 11.6851 120.291 11.8979C120.26 12.1108 120.244 12.3579 120.244 12.6392C120.244 12.9204 120.26 13.1675 120.291 13.3804C120.324 13.5933 120.369 13.771 120.426 13.9136C120.484 14.0562 120.559 14.1724 120.648 14.2622C120.738 14.3521 120.837 14.4165 120.944 14.4556C121.052 14.4946 121.174 14.5142 121.311 14.5142C121.482 14.5142 121.632 14.4819 121.759 14.4175C121.886 14.3511 121.996 14.2456 122.09 14.1011C122.186 13.9565 122.257 13.7622 122.304 13.5181C122.353 13.2739 122.377 12.981 122.377 12.6392C122.377 12.2974 122.353 12.0044 122.304 11.7603C122.257 11.5161 122.186 11.3218 122.09 11.1772C121.996 11.0327 121.886 10.9282 121.759 10.8638C121.632 10.7974 121.482 10.7642 121.311 10.7642ZM128.512 9.80908C128.785 9.80908 129.024 9.84619 129.229 9.92041C129.435 9.99463 129.603 10.0972 129.733 10.228C129.864 10.3569 129.97 10.522 130.05 10.7231C130.132 10.9224 130.188 11.1372 130.22 11.3677C130.253 11.5962 130.27 11.8579 130.27 12.1528V14.3794H130.855V15.3169H128.043V14.3794H128.629V12.0356C128.629 11.7271 128.601 11.4868 128.544 11.3149C128.489 11.1431 128.409 11.0249 128.304 10.9604C128.2 10.896 128.059 10.8638 127.879 10.8638C127.715 10.8638 127.547 10.9331 127.375 11.0718C127.203 11.2104 127.04 11.4038 126.886 11.6519L126.871 14.3794H127.457V15.3169H124.645V14.3794H125.23V10.8638H124.645V9.92627H126.464L126.874 10.7202C126.946 10.5894 127.029 10.4722 127.123 10.3687C127.219 10.2632 127.332 10.1675 127.463 10.0815C127.596 9.99365 127.751 9.92627 127.929 9.87939C128.106 9.83252 128.301 9.80908 128.512 9.80908ZM136.129 8.75439H136.715V9.92627H138.355V10.8638H136.715V13.9106C136.715 14.0435 136.752 14.1548 136.826 14.2446C136.902 14.3345 137.021 14.3794 137.184 14.3794C137.365 14.3794 137.52 14.3198 137.646 14.2007C137.773 14.0796 137.854 13.9048 137.887 13.6763L138.59 13.7935C138.561 14.022 138.504 14.2339 138.42 14.4292C138.338 14.6226 138.23 14.7954 138.098 14.9478C137.965 15.0981 137.8 15.2173 137.603 15.3052C137.407 15.3911 137.189 15.4341 136.949 15.4341C136.365 15.4341 135.906 15.2983 135.572 15.0269C135.24 14.7534 135.074 14.3813 135.074 13.9106V10.8638H134.488V9.92627H134.605C134.906 9.92627 135.172 9.84033 135.402 9.66846C135.633 9.49658 135.875 9.19189 136.129 8.75439ZM142.926 9.80908C143.199 9.80908 143.438 9.84619 143.644 9.92041C143.849 9.99463 144.017 10.0972 144.147 10.228C144.278 10.3569 144.384 10.522 144.464 10.7231C144.546 10.9224 144.603 11.1372 144.634 11.3677C144.667 11.5962 144.684 11.8579 144.684 12.1528V14.3794H145.27V15.3169H142.457V14.3794H143.043V12.0356C143.043 11.7271 143.015 11.4868 142.958 11.3149C142.903 11.1431 142.823 11.0249 142.718 10.9604C142.614 10.896 142.473 10.8638 142.293 10.8638C142.127 10.8638 141.956 10.9351 141.78 11.0776C141.606 11.2202 141.441 11.4194 141.285 11.6753V14.3794H141.871V15.3169H139.059V14.3794H139.645V8.98877H139.059V8.05127H141.285V10.7261C141.355 10.5952 141.438 10.4771 141.534 10.3716C141.63 10.2661 141.743 10.1704 141.874 10.0845C142.005 9.99658 142.159 9.9292 142.337 9.88232C142.517 9.8335 142.713 9.80908 142.926 9.80908ZM147.314 12.9731C147.332 13.1997 147.369 13.4019 147.426 13.5796C147.482 13.7573 147.551 13.9028 147.631 14.0161C147.713 14.1294 147.808 14.2231 147.915 14.2974C148.022 14.3696 148.133 14.4214 148.246 14.4526C148.359 14.4819 148.48 14.4966 148.609 14.4966C149.021 14.4966 149.343 14.4175 149.573 14.2593C149.806 14.0991 149.991 13.853 150.13 13.521L150.909 13.7905C150.839 13.98 150.749 14.1587 150.64 14.3267C150.532 14.4927 150.402 14.646 150.25 14.7866C150.098 14.9272 149.928 15.0483 149.74 15.1499C149.555 15.2495 149.345 15.3276 149.11 15.3843C148.876 15.4409 148.629 15.4692 148.369 15.4692C147.984 15.4692 147.62 15.4019 147.276 15.2671C146.935 15.1323 146.637 14.9448 146.383 14.7046C146.131 14.4624 145.931 14.1646 145.782 13.811C145.636 13.4575 145.562 13.0728 145.562 12.6567C145.562 12.2407 145.636 11.854 145.782 11.4966C145.931 11.1392 146.131 10.8384 146.383 10.5942C146.637 10.3481 146.935 10.1558 147.276 10.0171C147.62 9.87842 147.984 9.80908 148.369 9.80908C148.754 9.80908 149.117 9.87842 149.459 10.0171C149.803 10.1558 150.101 10.3481 150.353 10.5942C150.606 10.8384 150.807 11.1392 150.953 11.4966C151.102 11.854 151.176 12.2407 151.176 12.6567L151.103 12.9731H147.314ZM147.335 12.0356H149.403C149.353 11.5864 149.24 11.2593 149.066 11.0542C148.893 10.8491 148.662 10.7466 148.375 10.7466C148.232 10.7466 148.104 10.77 147.991 10.8169C147.878 10.8618 147.776 10.9351 147.687 11.0366C147.597 11.1362 147.521 11.27 147.461 11.438C147.402 11.604 147.36 11.8032 147.335 12.0356Z" fill="#087DA7"/>
<path d="M41.879 27.0209C41.859 23.7422 43.4062 21.2711 46.5306 19.4491C44.7831 17.0454 42.1394 15.7233 38.6544 15.4685C35.3547 15.2185 31.7445 17.3146 30.4226 17.3146C29.0256 17.3146 25.8311 15.555 23.3175 15.555C18.1301 15.6319 12.6172 19.526 12.6172 27.4488C12.6172 29.79 13.0628 32.2082 13.9541 34.6985C15.1458 37.9772 19.4419 46.0106 23.9233 45.8808C26.2667 45.8279 27.9241 44.2847 30.9734 44.2847C33.9326 44.2847 35.4648 45.8808 38.0786 45.8808C42.6 45.8183 46.4856 38.5157 47.6172 35.2273C41.5535 32.4823 41.879 27.1892 41.879 27.0209ZM36.6165 12.358C39.1551 9.46392 38.9248 6.8294 38.8497 5.88232C36.6065 6.00732 34.0128 7.34861 32.5356 8.99759C30.9083 10.7667 29.952 12.9542 30.1572 15.4204C32.5807 15.5983 34.7939 14.4012 36.6165 12.358Z" fill="#056D92"/>
</svg>
