<svg width="21" height="21" viewBox="0 0 21 21" fill="none" xmlns="http://www.w3.org/2000/svg">
<path d="M10.0722 20.7998C12.7433 20.7998 15.2545 19.7571 17.1433 17.8638C19.032 15.9705 20.0723 13.4533 20.0723 10.7758C20.0723 8.09835 19.032 5.58113 17.1433 3.68782C15.2545 1.79452 12.7433 0.751831 10.0722 0.751831C4.55822 0.751831 0.0722656 5.24854 0.0722656 10.7758C0.0722656 13.4533 1.11246 15.9705 3.00124 17.8638C4.89001 19.7571 7.40121 20.7998 10.0722 20.7998Z" fill="#F5F5F5"/>
<path d="M0.417969 10.7758C0.417969 8.19098 1.42218 5.76083 3.24559 3.93304C5.06901 2.10521 7.49331 1.09863 10.072 1.09863C12.6506 1.09863 15.0749 2.10521 16.8983 3.93304C18.7217 5.76083 19.7259 8.19094 19.7259 10.7758C19.7259 16.1118 15.3952 20.4529 10.072 20.4529C7.49331 20.4529 5.06901 19.4463 3.24559 17.6185C1.42218 15.7907 0.417969 13.3606 0.417969 10.7758Z" fill="black"/>
<path d="M10.0725 1.49744C4.96057 1.49744 0.816406 5.65154 0.816406 10.7757C0.816406 15.8999 4.96057 20.0541 10.0725 20.0541C15.1845 20.0541 19.3286 15.8999 19.3286 10.7757C19.3286 5.65154 15.1845 1.49744 10.0725 1.49744Z" fill="#F5F5F5"/>
<path d="M10.0727 16.7025C6.80732 16.7025 4.16016 14.049 4.16016 10.7758C4.16016 7.50263 6.80732 4.84912 10.0727 4.84912C13.338 4.84912 15.9852 7.50263 15.9852 10.7758C15.9852 14.049 13.338 16.7025 10.0727 16.7025Z" fill="black"/>
<path d="M4.54004 10.7757H10.0722V5.23035C7.0169 5.23035 4.54004 7.71318 4.54004 10.7757ZM10.0722 10.7757V16.3212C13.1274 16.3212 15.6043 13.8384 15.6043 10.7757H10.0722Z" fill="#F5F5F5"/>
<path d="M5.72735 5.12103C5.53137 4.93009 5.22842 4.87254 4.94401 5.04929C4.99833 4.90817 4.97614 4.76415 4.9473 4.68469C4.82477 4.46072 4.782 4.43269 4.68102 4.34775C4.35412 4.0728 4.01009 4.30754 3.76403 4.60148L2.5752 6.02164L4.44403 7.59357L5.69774 6.09592C5.9842 5.75372 6.02849 5.41445 5.72735 5.12103ZM10.382 4.4462L11.0238 2.74099V4.4462H11.5116V2.00403H10.7787L10.1121 3.75259H10.119L9.45243 2.00403H8.71959V4.4462H9.20733V2.74099L9.84917 4.4462H10.382ZM16.94 5.46223L16.0217 6.76552L17.4454 6.088L17.8224 6.55463L15.5815 7.64348L15.1391 7.09143L16.0205 5.79956L16.0153 5.79309L14.5714 6.38869L14.1247 5.84014L15.6531 3.86938L16.0301 4.33601L15.0729 5.59108L16.5356 4.96162L16.94 5.46223Z" fill="black"/>
<path d="M4.02363 4.95298C4.10636 4.85413 4.29332 4.85819 4.41356 4.95929C4.54575 5.07049 4.54607 5.22814 4.45729 5.33415L3.75129 6.17753L3.30957 5.80597L4.02363 4.95298ZM5.27975 5.94789L4.5354 6.83707L4.06864 6.44448L4.81901 5.54806C4.90374 5.44684 5.09267 5.41736 5.22009 5.52457C5.36432 5.64583 5.37861 5.82982 5.27975 5.94789Z" fill="#F5F5F5"/>
</svg>
