<svg width="21" height="21" viewBox="0 0 21 21" fill="none" xmlns="http://www.w3.org/2000/svg">
<g filter="url(#filter0_d_303_2503)">
<path d="M12.8969 9.95276L17.1928 5.66629C17.3809 5.47815 17.4866 5.22296 17.4866 4.95688C17.4866 4.6908 17.3809 4.43561 17.1928 4.24746C17.0046 4.05931 16.7495 3.95361 16.4835 3.95361C16.2174 3.95361 15.9623 4.05931 15.7741 4.24746L11.4883 8.54392L7.20242 4.24746C7.0143 4.05931 6.75915 3.95361 6.49311 3.95361C6.22706 3.95361 5.97192 4.05931 5.78379 4.24746C5.59567 4.43561 5.48999 4.6908 5.48999 4.95688C5.48999 5.22296 5.59567 5.47815 5.78379 5.66629L10.0796 9.95276L5.78379 14.2392C5.69016 14.3321 5.61583 14.4426 5.56511 14.5644C5.51439 14.6861 5.48828 14.8167 5.48828 14.9486C5.48828 15.0805 5.51439 15.2111 5.56511 15.3329C5.61583 15.4547 5.69016 15.5652 5.78379 15.6581C5.87667 15.7517 5.98716 15.826 6.1089 15.8768C6.23064 15.9275 6.36122 15.9536 6.49311 15.9536C6.62499 15.9536 6.75557 15.9275 6.87731 15.8768C6.99906 15.826 7.10955 15.7517 7.20242 15.6581L11.4883 11.3616L15.7741 15.6581C15.867 15.7517 15.9775 15.826 16.0992 15.8768C16.221 15.9275 16.3516 15.9536 16.4835 15.9536C16.6153 15.9536 16.7459 15.9275 16.8677 15.8768C16.9894 15.826 17.0999 15.7517 17.1928 15.6581C17.2864 15.5652 17.3607 15.4547 17.4114 15.3329C17.4622 15.2111 17.4883 15.0805 17.4883 14.9486C17.4883 14.8167 17.4622 14.6861 17.4114 14.5644C17.3607 14.4426 17.2864 14.3321 17.1928 14.2392L12.8969 9.95276Z" fill="#4C4C4C"/>
</g>
<defs>
<filter id="filter0_d_303_2503" x="0.488281" y="0.953613" width="20" height="20" filterUnits="userSpaceOnUse" color-interpolation-filters="sRGB">
<feFlood flood-opacity="0" result="BackgroundImageFix"/>
<feColorMatrix in="SourceAlpha" type="matrix" values="0 0 0 0 0 0 0 0 0 0 0 0 0 0 0 0 0 0 127 0" result="hardAlpha"/>
<feOffset dx="-1" dy="1"/>
<feGaussianBlur stdDeviation="2"/>
<feComposite in2="hardAlpha" operator="out"/>
<feColorMatrix type="matrix" values="0 0 0 0 0 0 0 0 0 0 0 0 0 0 0 0 0 0 0.25 0"/>
<feBlend mode="normal" in2="BackgroundImageFix" result="effect1_dropShadow_303_2503"/>
<feBlend mode="normal" in="SourceGraphic" in2="effect1_dropShadow_303_2503" result="shape"/>
</filter>
</defs>
</svg>
