<svg width="188" height="51" viewBox="0 0 188 51" fill="none" xmlns="http://www.w3.org/2000/svg">
<rect x="0.617188" y="0.882324" width="187.172" height="50" rx="10" fill="#F5F5F5"/>
<path d="M65.8672 34.1973H72.5078V35.9551H71.3359V40.4473H70.5547L69.4121 39.5879C68.6927 40.291 67.6413 40.6426 66.2578 40.6426C65.6751 40.6426 65.1185 40.5807 64.5879 40.457C64.0605 40.3366 63.582 40.1673 63.1523 39.9492C62.7259 39.7311 62.332 39.4707 61.9707 39.168C61.6094 38.8652 61.2969 38.5316 61.0332 38.167C60.7695 37.7992 60.5449 37.4102 60.3594 37C60.1771 36.5866 60.0404 36.1618 59.9492 35.7256C59.8581 35.2861 59.8125 34.8418 59.8125 34.3926C59.8125 33.9434 59.8581 33.5007 59.9492 33.0645C60.0404 32.625 60.1771 32.2002 60.3594 31.79C60.5449 31.3766 60.7695 30.9876 61.0332 30.623C61.2969 30.2552 61.6094 29.9199 61.9707 29.6172C62.332 29.3145 62.7259 29.054 63.1523 28.8359C63.582 28.6178 64.0605 28.4486 64.5879 28.3281C65.1185 28.2044 65.6751 28.1426 66.2578 28.1426C67.9668 28.1426 69.334 28.5983 70.3594 29.5098C70.7793 29.8809 71.0788 30.2552 71.2578 30.6328C71.4401 31.0072 71.5312 31.4792 71.5312 32.0488C71.5312 32.4818 71.3783 32.8512 71.0723 33.1572C70.7695 33.46 70.4017 33.6113 69.9688 33.6113C69.5358 33.6113 69.1663 33.46 68.8604 33.1572C68.5576 32.8512 68.4062 32.4818 68.4062 32.0488C68.4062 31.8275 68.4502 31.6191 68.5381 31.4238C68.626 31.2253 68.748 31.0527 68.9043 30.9062C68.6699 30.4701 68.3525 30.1608 67.9521 29.9785C67.555 29.7962 67.0553 29.7051 66.4531 29.7051C66.0592 29.7051 65.693 29.7848 65.3545 29.9443C65.0192 30.1038 64.7279 30.3268 64.4805 30.6133C64.2363 30.8997 64.0264 31.2383 63.8506 31.6289C63.6748 32.0195 63.543 32.4492 63.4551 32.918C63.3704 33.3835 63.3281 33.875 63.3281 34.3926C63.3281 34.9036 63.3802 35.3952 63.4844 35.8672C63.5885 36.3392 63.7399 36.7689 63.9385 37.1562C64.137 37.5436 64.3698 37.8822 64.6367 38.1719C64.9036 38.4583 65.2096 38.6813 65.5547 38.8408C65.903 39.0003 66.2676 39.0801 66.6484 39.0801C67.2669 39.0801 67.7878 38.8831 68.2109 38.4893V35.9551H65.8672V34.1973ZM76.0479 31.6338C76.6208 31.4092 77.2279 31.2969 77.8691 31.2969C78.5104 31.2969 79.1159 31.4092 79.6855 31.6338C80.2585 31.8584 80.7565 32.1725 81.1797 32.5762C81.6029 32.9766 81.9365 33.4714 82.1807 34.0605C82.4281 34.6497 82.5518 35.291 82.5518 35.9844C82.5518 36.6777 82.4281 37.319 82.1807 37.9082C81.9365 38.4974 81.6029 38.9938 81.1797 39.3975C80.7565 39.7979 80.2585 40.1104 79.6855 40.335C79.1159 40.5596 78.5104 40.6719 77.8691 40.6719C77.2279 40.6719 76.6208 40.5596 76.0479 40.335C75.4782 40.1104 74.9818 39.7979 74.5586 39.3975C74.1387 38.9938 73.805 38.4974 73.5576 37.9082C73.3135 37.319 73.1914 36.6777 73.1914 35.9844C73.1914 35.291 73.3135 34.6497 73.5576 34.0605C73.805 33.4714 74.1387 32.9766 74.5586 32.5762C74.9818 32.1725 75.4782 31.8584 76.0479 31.6338ZM77.8691 32.8594C77.6413 32.8594 77.4378 32.8919 77.2588 32.957C77.0798 33.0221 76.9154 33.1296 76.7656 33.2793C76.6159 33.429 76.4922 33.6227 76.3945 33.8604C76.3001 34.098 76.2253 34.3942 76.1699 34.749C76.1178 35.1038 76.0918 35.5156 76.0918 35.9844C76.0918 36.4531 76.1178 36.8649 76.1699 37.2197C76.2253 37.5745 76.3001 37.8708 76.3945 38.1084C76.4922 38.346 76.6159 38.5397 76.7656 38.6895C76.9154 38.8392 77.0798 38.9466 77.2588 39.0117C77.4378 39.0768 77.6413 39.1094 77.8691 39.1094C78.1556 39.1094 78.4046 39.0557 78.6162 38.9482C78.8278 38.8376 79.0117 38.6618 79.168 38.4209C79.3275 38.18 79.4463 37.8561 79.5244 37.4492C79.6058 37.0423 79.6465 36.554 79.6465 35.9844C79.6465 35.4147 79.6058 34.9264 79.5244 34.5195C79.4463 34.1126 79.3275 33.7887 79.168 33.5479C79.0117 33.307 78.8278 33.1328 78.6162 33.0254C78.4046 32.9147 78.1556 32.8594 77.8691 32.8594ZM86.3799 31.6338C86.9528 31.4092 87.5599 31.2969 88.2012 31.2969C88.8424 31.2969 89.4479 31.4092 90.0176 31.6338C90.5905 31.8584 91.0885 32.1725 91.5117 32.5762C91.9349 32.9766 92.2686 33.4714 92.5127 34.0605C92.7601 34.6497 92.8838 35.291 92.8838 35.9844C92.8838 36.6777 92.7601 37.319 92.5127 37.9082C92.2686 38.4974 91.9349 38.9938 91.5117 39.3975C91.0885 39.7979 90.5905 40.1104 90.0176 40.335C89.4479 40.5596 88.8424 40.6719 88.2012 40.6719C87.5599 40.6719 86.9528 40.5596 86.3799 40.335C85.8102 40.1104 85.3138 39.7979 84.8906 39.3975C84.4707 38.9938 84.137 38.4974 83.8896 37.9082C83.6455 37.319 83.5234 36.6777 83.5234 35.9844C83.5234 35.291 83.6455 34.6497 83.8896 34.0605C84.137 33.4714 84.4707 32.9766 84.8906 32.5762C85.3138 32.1725 85.8102 31.8584 86.3799 31.6338ZM88.2012 32.8594C87.9733 32.8594 87.7699 32.8919 87.5908 32.957C87.4118 33.0221 87.2474 33.1296 87.0977 33.2793C86.9479 33.429 86.8242 33.6227 86.7266 33.8604C86.6322 34.098 86.5573 34.3942 86.502 34.749C86.4499 35.1038 86.4238 35.5156 86.4238 35.9844C86.4238 36.4531 86.4499 36.8649 86.502 37.2197C86.5573 37.5745 86.6322 37.8708 86.7266 38.1084C86.8242 38.346 86.9479 38.5397 87.0977 38.6895C87.2474 38.8392 87.4118 38.9466 87.5908 39.0117C87.7699 39.0768 87.9733 39.1094 88.2012 39.1094C88.4876 39.1094 88.7367 39.0557 88.9482 38.9482C89.1598 38.8376 89.3438 38.6618 89.5 38.4209C89.6595 38.18 89.7783 37.8561 89.8564 37.4492C89.9378 37.0423 89.9785 36.554 89.9785 35.9844C89.9785 35.4147 89.9378 34.9264 89.8564 34.5195C89.7783 34.1126 89.6595 33.7887 89.5 33.5479C89.3438 33.307 89.1598 33.1328 88.9482 33.0254C88.7367 32.9147 88.4876 32.8594 88.2012 32.8594ZM99.8125 29.7051C99.8125 29.2721 99.9639 28.9043 100.267 28.6016C100.573 28.2956 100.942 28.1426 101.375 28.1426C101.538 28.1426 101.697 28.167 101.854 28.2158C102.055 28.2777 102.231 28.359 102.381 28.46C102.534 28.5609 102.658 28.6715 102.752 28.792C102.846 28.9124 102.923 29.0524 102.981 29.2119C103.04 29.3682 103.079 29.526 103.099 29.6855C103.121 29.8418 103.133 30.016 103.133 30.208C103.133 30.4066 103.094 30.6149 103.016 30.833C102.938 31.0511 102.833 31.2578 102.703 31.4531C102.576 31.6452 102.436 31.8258 102.283 31.9951C102.133 32.1611 101.979 32.3076 101.819 32.4346C102.304 32.9131 102.547 33.5007 102.547 34.1973C102.547 34.7181 102.433 35.182 102.205 35.5889C101.98 35.9925 101.67 36.3197 101.272 36.5703C100.875 36.8177 100.421 37.0049 99.9102 37.1318C99.4023 37.2588 98.849 37.3223 98.25 37.3223C97.7552 37.3223 97.2816 37.2669 96.8291 37.1562C96.5329 37.2018 96.305 37.2816 96.1455 37.3955C95.986 37.5094 95.9062 37.6152 95.9062 37.7129C95.9062 37.8105 95.9469 37.9001 96.0283 37.9814C96.1097 38.0628 96.1992 38.1035 96.2969 38.1035H99.0312C100.408 38.1035 101.403 38.3005 102.015 38.6943C102.63 39.0882 102.938 39.7376 102.938 40.6426C102.938 41.0788 102.884 41.4743 102.776 41.8291C102.669 42.1872 102.522 42.4915 102.337 42.7422C102.155 42.9961 101.928 43.2191 101.658 43.4111C101.388 43.6064 101.105 43.7627 100.809 43.8799C100.512 43.9971 100.182 44.0915 99.8174 44.1631C99.4528 44.2347 99.0996 44.2835 98.7578 44.3096C98.416 44.3389 98.0514 44.3535 97.6641 44.3535C97.0456 44.3535 96.4857 44.2852 95.9844 44.1484C95.4863 44.015 95.0762 43.8311 94.7539 43.5967C94.4349 43.3623 94.1891 43.0921 94.0166 42.7861C93.8441 42.4834 93.7578 42.1595 93.7578 41.8145C93.7578 41.1081 94.1631 40.5563 94.9736 40.1592C94.6579 39.9997 94.4089 39.7816 94.2266 39.5049C94.0443 39.2249 93.9531 38.888 93.9531 38.4941C93.9531 38.0547 94.0801 37.6559 94.334 37.2979C94.5879 36.9398 94.9297 36.6794 95.3594 36.5166C94.9785 36.2464 94.6807 35.9176 94.4658 35.5303C94.2542 35.1429 94.1484 34.6986 94.1484 34.1973C94.1484 33.7806 94.2217 33.4062 94.3682 33.0742C94.5179 32.7422 94.7181 32.4671 94.9688 32.249C95.2227 32.0277 95.5254 31.8454 95.877 31.7021C96.2318 31.5557 96.6045 31.4515 96.9951 31.3896C97.3857 31.3278 97.804 31.2969 98.25 31.2969C99.2786 31.2969 100.156 31.4661 100.882 31.8047C101.048 31.6126 101.176 31.432 101.268 31.2627C100.861 31.2367 100.516 31.0739 100.232 30.7744C99.9525 30.4749 99.8125 30.1185 99.8125 29.7051ZM98.3477 32.8301C97.8887 32.8301 97.529 32.9619 97.2686 33.2256C97.0114 33.4893 96.8828 33.8701 96.8828 34.3682C96.8828 34.8695 97.013 35.2601 97.2734 35.54C97.5339 35.8167 97.8919 35.9551 98.3477 35.9551C98.8001 35.9551 99.1566 35.8151 99.417 35.5352C99.6807 35.252 99.8125 34.863 99.8125 34.3682C99.8125 33.8766 99.6823 33.4974 99.4219 33.2305C99.1615 32.9635 98.8034 32.8301 98.3477 32.8301ZM96.8584 40.4473C96.484 40.7142 96.2969 41.0397 96.2969 41.4238C96.2969 41.8112 96.4173 42.07 96.6582 42.2002C96.8991 42.3337 97.3646 42.4004 98.0547 42.4004C99.6172 42.4004 100.398 42.0098 100.398 41.2285C100.398 41.0332 100.317 40.8542 100.154 40.6914C99.9915 40.5286 99.8125 40.4473 99.6172 40.4473H96.8584ZM103.816 28.3379H107.527V38.8848H108.504V40.4473H103.816V38.8848H104.793V29.9004H103.816V28.3379ZM112.107 36.541C112.137 36.9186 112.199 37.2555 112.293 37.5518C112.387 37.848 112.501 38.0905 112.635 38.2793C112.771 38.4681 112.929 38.6243 113.108 38.748C113.287 38.8685 113.471 38.9548 113.66 39.0068C113.849 39.0557 114.051 39.0801 114.266 39.0801C114.952 39.0801 115.488 38.9482 115.872 38.6846C116.259 38.4176 116.569 38.0075 116.8 37.4541L118.099 37.9033C117.981 38.2191 117.832 38.5169 117.649 38.7969C117.47 39.0736 117.254 39.3291 117 39.5635C116.746 39.7979 116.463 39.9997 116.15 40.1689C115.841 40.335 115.491 40.4652 115.101 40.5596C114.71 40.654 114.298 40.7012 113.865 40.7012C113.224 40.7012 112.617 40.5889 112.044 40.3643C111.474 40.1396 110.978 39.8271 110.555 39.4268C110.135 39.0231 109.801 38.5267 109.554 37.9375C109.31 37.3483 109.188 36.707 109.188 36.0137C109.188 35.3203 109.31 34.6758 109.554 34.0801C109.801 33.4844 110.135 32.9831 110.555 32.5762C110.978 32.166 111.474 31.8454 112.044 31.6143C112.617 31.3831 113.224 31.2676 113.865 31.2676C114.507 31.2676 115.112 31.3831 115.682 31.6143C116.255 31.8454 116.751 32.166 117.171 32.5762C117.594 32.9831 117.928 33.4844 118.172 34.0801C118.419 34.6758 118.543 35.3203 118.543 36.0137L118.421 36.541H112.107ZM112.142 34.9785H115.589C115.504 34.2298 115.317 33.6846 115.027 33.3428C114.738 33.001 114.354 32.8301 113.875 32.8301C113.637 32.8301 113.424 32.8691 113.235 32.9473C113.047 33.0221 112.877 33.1442 112.728 33.3135C112.578 33.4795 112.452 33.7025 112.352 33.9824C112.254 34.2591 112.184 34.5911 112.142 34.9785ZM124.793 40.4473V38.8848H126.355V29.9004H124.793V28.3379H129.871C131.053 28.3379 131.979 28.3753 132.649 28.4502C133.323 28.5251 133.847 28.6423 134.222 28.8018C134.599 28.958 134.946 29.194 135.262 29.5098C135.545 29.793 135.758 30.1494 135.901 30.5791C136.048 31.0055 136.121 31.4629 136.121 31.9512C136.121 32.3483 136.069 32.7161 135.965 33.0547C135.864 33.39 135.719 33.6878 135.53 33.9482C135.345 34.2054 135.115 34.4365 134.842 34.6416C134.572 34.8434 134.272 35.0143 133.943 35.1543C133.615 35.2943 133.25 35.4098 132.85 35.501C132.452 35.5921 132.041 35.6589 131.614 35.7012C131.191 35.7402 130.74 35.7598 130.262 35.7598H129.48V38.8848H131.434V40.4473H124.793ZM129.48 34.1973H130.262C131.824 34.1973 132.605 33.4811 132.605 32.0488C132.605 31.8014 132.588 31.5768 132.552 31.375C132.519 31.1732 132.457 30.9779 132.366 30.7891C132.275 30.6003 132.158 30.4424 132.015 30.3154C131.871 30.1885 131.684 30.0876 131.453 30.0127C131.222 29.9378 130.955 29.9004 130.652 29.9004H129.48V34.1973ZM136.805 28.3379H140.516V38.8848H141.492V40.4473H136.805V38.8848H137.781V29.9004H136.805V28.3379ZM150.477 34.5635V38.8848H151.453V40.4473H148.411L147.977 39.4316C147.645 39.9069 147.259 40.2324 146.819 40.4082C146.383 40.584 145.773 40.6719 144.988 40.6719C144.581 40.6719 144.202 40.6003 143.851 40.457C143.502 40.3171 143.204 40.125 142.957 39.8809C142.713 39.6367 142.521 39.3438 142.381 39.002C142.244 38.6602 142.176 38.2939 142.176 37.9033C142.176 37.2295 142.439 36.6712 142.967 36.2285C143.494 35.7826 144.168 35.5596 144.988 35.5596C145.649 35.5596 146.196 35.623 146.629 35.75C147.062 35.8737 147.433 36.0723 147.742 36.3457V34.2754C147.742 33.9824 147.701 33.7383 147.62 33.543C147.542 33.3444 147.423 33.193 147.264 33.0889C147.104 32.9814 146.925 32.9066 146.727 32.8643C146.528 32.8219 146.29 32.8008 146.014 32.8008C145.792 32.8008 145.592 32.848 145.413 32.9424C145.514 33.154 145.564 33.377 145.564 33.6113C145.564 34.0443 145.411 34.4137 145.105 34.7197C144.803 35.0225 144.435 35.1738 144.002 35.1738C143.569 35.1738 143.2 35.0225 142.894 34.7197C142.591 34.4137 142.439 34.0443 142.439 33.6113C142.439 33.39 142.482 33.1816 142.566 32.9863C142.654 32.791 142.775 32.6201 142.928 32.4736C143.058 32.3369 143.193 32.2148 143.333 32.1074C143.473 31.9967 143.649 31.8877 143.86 31.7803C144.075 31.6696 144.308 31.5785 144.559 31.5068C144.809 31.4352 145.109 31.3783 145.457 31.3359C145.809 31.2904 146.193 31.2676 146.609 31.2676C147.15 31.2676 147.658 31.3473 148.133 31.5068C148.608 31.6663 149.018 31.8877 149.363 32.1709C149.708 32.4541 149.98 32.8024 150.179 33.2158C150.377 33.6292 150.477 34.0785 150.477 34.5635ZM147.742 38.2793V37.6055C147.54 37.4134 147.312 37.2523 147.059 37.1221C146.808 36.9886 146.575 36.9219 146.36 36.9219C145.898 36.9219 145.573 37 145.384 37.1562C145.195 37.3092 145.101 37.5583 145.101 37.9033C145.101 38.3167 145.182 38.6211 145.345 38.8164C145.507 39.0117 145.81 39.1094 146.253 39.1094C146.504 39.1094 146.764 39.0296 147.034 38.8701C147.308 38.7074 147.544 38.5104 147.742 38.2793ZM151.614 43.46C151.442 43.1995 151.355 42.9115 151.355 42.5957C151.355 42.1628 151.507 41.7933 151.81 41.4873C152.116 41.1846 152.485 41.0332 152.918 41.0332C153.351 41.0332 153.719 41.1846 154.021 41.4873C154.327 41.7933 154.48 42.1628 154.48 42.5957C154.48 42.6868 154.472 42.7747 154.456 42.8594C154.469 42.8626 154.48 42.8643 154.49 42.8643C154.725 42.8643 155.011 42.4769 155.35 41.7021L155.716 40.8623L152.273 33.0254H151.355V31.4629H156.824V33.0254H155.218L156.766 36.541C156.964 37.0033 157.107 37.3939 157.195 37.7129C157.283 37.3939 157.426 37.0033 157.625 36.541L159.168 33.0254H157.801V31.4629H161.902V33.0254H160.867L157.605 40.4473C157.436 40.8314 157.283 41.1618 157.146 41.4385C157.013 41.7184 156.862 42.0016 156.692 42.2881C156.526 42.5778 156.365 42.8219 156.209 43.0205C156.053 43.2191 155.875 43.4079 155.677 43.5869C155.481 43.766 155.278 43.9076 155.066 44.0117C154.855 44.1191 154.62 44.2021 154.363 44.2607C154.106 44.3226 153.829 44.3535 153.533 44.3535C153.257 44.3535 153.012 44.3307 152.801 44.2852C152.589 44.2428 152.409 44.1777 152.259 44.0898C152.112 44.0052 151.99 43.9124 151.893 43.8115C151.795 43.7139 151.702 43.5967 151.614 43.46Z" fill="#087DA7"/>
<path d="M64.8672 11.5669H68.8516V12.6216H68.1484V15.3169H67.6797L66.9941 14.8013C66.5625 15.2231 65.9316 15.4341 65.1016 15.4341C64.752 15.4341 64.418 15.397 64.0996 15.3228C63.7832 15.2505 63.4961 15.1489 63.2383 15.0181C62.9824 14.8872 62.7461 14.731 62.5293 14.5493C62.3125 14.3677 62.125 14.1675 61.9668 13.9487C61.8086 13.728 61.6738 13.4946 61.5625 13.2485C61.4531 13.0005 61.3711 12.7456 61.3164 12.4839C61.2617 12.2202 61.2344 11.9536 61.2344 11.6841C61.2344 11.4146 61.2617 11.1489 61.3164 10.8872C61.3711 10.6235 61.4531 10.3687 61.5625 10.1226C61.6738 9.87451 61.8086 9.64111 61.9668 9.42236C62.125 9.20166 62.3125 9.00049 62.5293 8.81885C62.7461 8.63721 62.9824 8.48096 63.2383 8.3501C63.4961 8.21924 63.7832 8.11768 64.0996 8.04541C64.418 7.97119 64.752 7.93408 65.1016 7.93408C66.127 7.93408 66.9473 8.20752 67.5625 8.75439C67.8145 8.97705 67.9941 9.20166 68.1016 9.42822C68.2109 9.65283 68.2656 9.93604 68.2656 10.2778C68.2656 10.5376 68.1738 10.7593 67.9902 10.9429C67.8086 11.1245 67.5879 11.2153 67.3281 11.2153C67.0684 11.2153 66.8467 11.1245 66.6631 10.9429C66.4814 10.7593 66.3906 10.5376 66.3906 10.2778C66.3906 10.145 66.417 10.02 66.4697 9.90283C66.5225 9.78369 66.5957 9.68018 66.6895 9.59229C66.5488 9.33057 66.3584 9.14502 66.1182 9.03564C65.8799 8.92627 65.5801 8.87158 65.2188 8.87158C64.9824 8.87158 64.7627 8.91943 64.5596 9.01514C64.3584 9.11084 64.1836 9.24463 64.0352 9.4165C63.8887 9.58838 63.7627 9.7915 63.6572 10.0259C63.5518 10.2603 63.4727 10.5181 63.4199 10.7993C63.3691 11.0786 63.3438 11.3735 63.3438 11.6841C63.3438 11.9907 63.375 12.2856 63.4375 12.5688C63.5 12.8521 63.5908 13.1099 63.71 13.3423C63.8291 13.5747 63.9688 13.7778 64.1289 13.9517C64.2891 14.1235 64.4727 14.2573 64.6797 14.353C64.8887 14.4487 65.1074 14.4966 65.3359 14.4966C65.707 14.4966 66.0195 14.3784 66.2734 14.1421V12.6216H64.8672V11.5669ZM71.0137 12.9731C71.0312 13.1997 71.0684 13.4019 71.125 13.5796C71.1816 13.7573 71.25 13.9028 71.3301 14.0161C71.4121 14.1294 71.5068 14.2231 71.6143 14.2974C71.7217 14.3696 71.832 14.4214 71.9453 14.4526C72.0586 14.4819 72.1797 14.4966 72.3086 14.4966C72.7207 14.4966 73.042 14.4175 73.2725 14.2593C73.5049 14.0991 73.6904 13.853 73.8291 13.521L74.6084 13.7905C74.5381 13.98 74.4482 14.1587 74.3389 14.3267C74.2314 14.4927 74.1016 14.646 73.9492 14.7866C73.7969 14.9272 73.627 15.0483 73.4395 15.1499C73.2539 15.2495 73.0439 15.3276 72.8096 15.3843C72.5752 15.4409 72.3281 15.4692 72.0684 15.4692C71.6836 15.4692 71.3193 15.4019 70.9756 15.2671C70.6338 15.1323 70.3359 14.9448 70.082 14.7046C69.8301 14.4624 69.6299 14.1646 69.4814 13.811C69.335 13.4575 69.2617 13.0728 69.2617 12.6567C69.2617 12.2407 69.335 11.854 69.4814 11.4966C69.6299 11.1392 69.8301 10.8384 70.082 10.5942C70.3359 10.3481 70.6338 10.1558 70.9756 10.0171C71.3193 9.87842 71.6836 9.80908 72.0684 9.80908C72.4531 9.80908 72.8164 9.87842 73.1582 10.0171C73.502 10.1558 73.7998 10.3481 74.0518 10.5942C74.3057 10.8384 74.5059 11.1392 74.6523 11.4966C74.8008 11.854 74.875 12.2407 74.875 12.6567L74.8018 12.9731H71.0137ZM71.0342 12.0356H73.1025C73.0518 11.5864 72.9395 11.2593 72.7656 11.0542C72.5918 10.8491 72.3613 10.7466 72.0742 10.7466C71.9316 10.7466 71.8037 10.77 71.6904 10.8169C71.5771 10.8618 71.4756 10.9351 71.3857 11.0366C71.2959 11.1362 71.2207 11.27 71.1602 11.438C71.1016 11.604 71.0596 11.8032 71.0342 12.0356ZM76.9844 8.75439H77.5703V9.92627H79.2109V10.8638H77.5703V13.9106C77.5703 14.0435 77.6074 14.1548 77.6816 14.2446C77.7578 14.3345 77.877 14.3794 78.0391 14.3794C78.2207 14.3794 78.375 14.3198 78.502 14.2007C78.6289 14.0796 78.709 13.9048 78.7422 13.6763L79.4453 13.7935C79.416 14.022 79.3594 14.2339 79.2754 14.4292C79.1934 14.6226 79.0859 14.7954 78.9531 14.9478C78.8203 15.0981 78.6553 15.2173 78.458 15.3052C78.2627 15.3911 78.0449 15.4341 77.8047 15.4341C77.2207 15.4341 76.7617 15.2983 76.4277 15.0269C76.0957 14.7534 75.9297 14.3813 75.9297 13.9106V10.8638H75.3438V9.92627H75.4609C75.7617 9.92627 76.0273 9.84033 76.2578 9.66846C76.4883 9.49658 76.7305 9.19189 76.9844 8.75439ZM83.8193 9.30225C83.6377 9.11865 83.5469 8.89697 83.5469 8.63721C83.5469 8.37744 83.6377 8.15674 83.8193 7.9751C84.0029 7.7915 84.2246 7.69971 84.4844 7.69971C84.7441 7.69971 84.9648 7.7915 85.1465 7.9751C85.3301 8.15674 85.4219 8.37744 85.4219 8.63721C85.4219 8.89697 85.3301 9.11865 85.1465 9.30225C84.9648 9.48389 84.7441 9.57471 84.4844 9.57471C84.2246 9.57471 84.0029 9.48389 83.8193 9.30225ZM83.0781 9.92627H85.3047V14.3794H85.8906V15.3169H83.0781V14.3794H83.6641V10.8638H83.0781V9.92627ZM88 8.75439H88.5859V9.92627H90.2266V10.8638H88.5859V13.9106C88.5859 14.0435 88.623 14.1548 88.6973 14.2446C88.7734 14.3345 88.8926 14.3794 89.0547 14.3794C89.2363 14.3794 89.3906 14.3198 89.5176 14.2007C89.6445 14.0796 89.7246 13.9048 89.7578 13.6763L90.4609 13.7935C90.4316 14.022 90.375 14.2339 90.291 14.4292C90.209 14.6226 90.1016 14.7954 89.9688 14.9478C89.8359 15.0981 89.6709 15.2173 89.4736 15.3052C89.2783 15.3911 89.0605 15.4341 88.8203 15.4341C88.2363 15.4341 87.7773 15.2983 87.4434 15.0269C87.1113 14.7534 86.9453 14.3813 86.9453 13.9106V10.8638H86.3594V9.92627H86.4766C86.7773 9.92627 87.043 9.84033 87.2734 9.66846C87.5039 9.49658 87.7461 9.19189 88 8.75439ZM95.8662 10.0288C96.21 9.89404 96.5742 9.82666 96.959 9.82666C97.3438 9.82666 97.707 9.89404 98.0488 10.0288C98.3926 10.1636 98.6914 10.3521 98.9453 10.5942C99.1992 10.8345 99.3994 11.1313 99.5459 11.4849C99.6943 11.8384 99.7686 12.2231 99.7686 12.6392C99.7686 13.0552 99.6943 13.4399 99.5459 13.7935C99.3994 14.147 99.1992 14.4448 98.9453 14.687C98.6914 14.9272 98.3926 15.1147 98.0488 15.2495C97.707 15.3843 97.3438 15.4517 96.959 15.4517C96.5742 15.4517 96.21 15.3843 95.8662 15.2495C95.5244 15.1147 95.2266 14.9272 94.9727 14.687C94.7207 14.4448 94.5205 14.147 94.3721 13.7935C94.2256 13.4399 94.1523 13.0552 94.1523 12.6392C94.1523 12.2231 94.2256 11.8384 94.3721 11.4849C94.5205 11.1313 94.7207 10.8345 94.9727 10.5942C95.2266 10.3521 95.5244 10.1636 95.8662 10.0288ZM96.959 10.7642C96.8223 10.7642 96.7002 10.7837 96.5928 10.8228C96.4854 10.8618 96.3867 10.9263 96.2969 11.0161C96.207 11.106 96.1328 11.2222 96.0742 11.3647C96.0176 11.5073 95.9727 11.6851 95.9395 11.8979C95.9082 12.1108 95.8926 12.3579 95.8926 12.6392C95.8926 12.9204 95.9082 13.1675 95.9395 13.3804C95.9727 13.5933 96.0176 13.771 96.0742 13.9136C96.1328 14.0562 96.207 14.1724 96.2969 14.2622C96.3867 14.3521 96.4854 14.4165 96.5928 14.4556C96.7002 14.4946 96.8223 14.5142 96.959 14.5142C97.1309 14.5142 97.2803 14.4819 97.4072 14.4175C97.5342 14.3511 97.6445 14.2456 97.7383 14.1011C97.834 13.9565 97.9053 13.7622 97.9521 13.5181C98.001 13.2739 98.0254 12.981 98.0254 12.6392C98.0254 12.2974 98.001 12.0044 97.9521 11.7603C97.9053 11.5161 97.834 11.3218 97.7383 11.1772C97.6445 11.0327 97.5342 10.9282 97.4072 10.8638C97.2803 10.7974 97.1309 10.7642 96.959 10.7642ZM104.16 9.80908C104.434 9.80908 104.673 9.84619 104.878 9.92041C105.083 9.99463 105.251 10.0972 105.382 10.228C105.513 10.3569 105.618 10.522 105.698 10.7231C105.78 10.9224 105.837 11.1372 105.868 11.3677C105.901 11.5962 105.918 11.8579 105.918 12.1528V14.3794H106.504V15.3169H103.691V14.3794H104.277V12.0356C104.277 11.7271 104.249 11.4868 104.192 11.3149C104.138 11.1431 104.058 11.0249 103.952 10.9604C103.849 10.896 103.707 10.8638 103.527 10.8638C103.363 10.8638 103.195 10.9331 103.023 11.0718C102.852 11.2104 102.688 11.4038 102.534 11.6519L102.52 14.3794H103.105V15.3169H100.293V14.3794H100.879V10.8638H100.293V9.92627H102.112L102.522 10.7202C102.595 10.5894 102.678 10.4722 102.771 10.3687C102.867 10.2632 102.98 10.1675 103.111 10.0815C103.244 9.99365 103.399 9.92627 103.577 9.87939C103.755 9.83252 103.949 9.80908 104.16 9.80908Z" fill="#087DA7"/>
<path d="M39.2415 32.0436C43.3029 29.437 46.3817 27.4507 46.6471 27.2962C47.496 26.7686 48.3727 25.3718 46.6471 24.2869C46.0899 23.9457 43.0902 22.0213 39.2415 19.5396L33.9062 25.838L39.2415 32.0435V32.0436Z" fill="#FFD900"/>
<path d="M33.9062 25.8379L16.918 45.8517C17.3167 45.9134 17.7669 45.7898 18.2976 45.4487C19.412 44.7357 31.2246 37.1951 39.2415 32.045L33.9062 25.8379Z" fill="#F43249"/>
<path d="M33.9062 25.8377L39.2415 19.5703C39.2415 19.5703 19.4926 6.97189 18.2977 6.22819C17.8475 5.91653 17.343 5.82395 16.8916 5.91653L33.9062 25.8377Z" fill="#00EE76"/>
<path d="M33.9059 25.8377L16.8913 5.9165C16.2007 6.10312 15.6172 6.81626 15.6172 8.27469V43.4933C15.6172 44.8281 16.0687 45.7896 16.9177 45.8823L33.9059 25.8377Z" fill="#00D3FF"/>
</svg>
