<svg width="45" height="45" viewBox="0 0 45 45" fill="none" xmlns="http://www.w3.org/2000/svg">
<g filter="url(#filter0_di_727_3525)">
<ellipse cx="23.6685" cy="21.124" rx="20" ry="20" fill="#087DA7"/>
<path d="M43.1685 21.124C43.1685 31.8936 34.438 40.624 23.6685 40.624C12.8989 40.624 4.16846 31.8936 4.16846 21.124C4.16846 10.3545 12.8989 1.62402 23.6685 1.62402C34.438 1.62402 43.1685 10.3545 43.1685 21.124Z" stroke="url(#paint0_linear_727_3525)"/>
</g>
<path d="M23.6659 17.9661C21.9271 17.9661 20.508 19.3851 20.508 21.124C20.508 22.8629 21.9271 24.2819 23.6659 24.2819C25.4047 24.2819 26.8238 22.8629 26.8238 21.124C26.8238 19.3851 25.4047 17.9661 23.6659 17.9661ZM33.1371 21.124C33.1371 19.8163 33.149 18.5204 33.0755 17.2151C33.0021 15.6989 32.6562 14.3533 31.5475 13.2446C30.4365 12.1335 29.0932 11.79 27.5771 11.7166C26.2694 11.6432 24.9736 11.655 23.6683 11.655C22.3606 11.655 21.0648 11.6432 19.7594 11.7166C18.2433 11.79 16.8977 12.1359 15.789 13.2446C14.678 14.3557 14.3345 15.6989 14.261 17.2151C14.1876 18.5228 14.1994 19.8187 14.1994 21.124C14.1994 22.4293 14.1876 23.7276 14.261 25.0329C14.3345 26.5491 14.6803 27.8947 15.789 29.0034C16.9001 30.1145 18.2433 30.458 19.7594 30.5314C21.0671 30.6049 22.363 30.593 23.6683 30.593C24.9759 30.593 26.2718 30.6049 27.5771 30.5314C29.0932 30.458 30.4388 30.1121 31.5475 29.0034C32.6586 27.8923 33.0021 26.5491 33.0755 25.0329C33.1513 23.7276 33.1371 22.4317 33.1371 21.124ZM23.6659 25.9829C20.9771 25.9829 18.8071 23.8129 18.8071 21.124C18.8071 18.4352 20.9771 16.2651 23.6659 16.2651C26.3547 16.2651 28.5247 18.4352 28.5247 21.124C28.5247 23.8129 26.3547 25.9829 23.6659 25.9829ZM28.7237 17.2009C28.0959 17.2009 27.5889 16.6939 27.5889 16.0661C27.5889 15.4383 28.0959 14.9314 28.7237 14.9314C29.3515 14.9314 29.8584 15.4383 29.8584 16.0661C29.8586 16.2152 29.8294 16.3629 29.7724 16.5006C29.7155 16.6384 29.6319 16.7635 29.5265 16.869C29.4211 16.9744 29.2959 17.0579 29.1582 17.1149C29.0204 17.1719 28.8728 17.2011 28.7237 17.2009Z" fill="#F5F5F5"/>
<defs>
<filter id="filter0_di_727_3525" x="0.668457" y="0.124023" width="44" height="44" filterUnits="userSpaceOnUse" color-interpolation-filters="sRGB">
<feFlood flood-opacity="0" result="BackgroundImageFix"/>
<feColorMatrix in="SourceAlpha" type="matrix" values="0 0 0 0 0 0 0 0 0 0 0 0 0 0 0 0 0 0 127 0" result="hardAlpha"/>
<feOffset dx="-1" dy="1"/>
<feGaussianBlur stdDeviation="1"/>
<feComposite in2="hardAlpha" operator="out"/>
<feColorMatrix type="matrix" values="0 0 0 0 0 0 0 0 0 0 0 0 0 0 0 0 0 0 0.25 0"/>
<feBlend mode="normal" in2="BackgroundImageFix" result="effect1_dropShadow_727_3525"/>
<feBlend mode="normal" in="SourceGraphic" in2="effect1_dropShadow_727_3525" result="shape"/>
<feColorMatrix in="SourceAlpha" type="matrix" values="0 0 0 0 0 0 0 0 0 0 0 0 0 0 0 0 0 0 127 0" result="hardAlpha"/>
<feOffset dx="-1" dy="1"/>
<feGaussianBlur stdDeviation="2"/>
<feComposite in2="hardAlpha" operator="arithmetic" k2="-1" k3="1"/>
<feColorMatrix type="matrix" values="0 0 0 0 0 0 0 0 0 0 0 0 0 0 0 0 0 0 0.25 0"/>
<feBlend mode="normal" in2="shape" result="effect2_innerShadow_727_3525"/>
</filter>
<linearGradient id="paint0_linear_727_3525" x1="23.6685" y1="1.12402" x2="23.6685" y2="41.124" gradientUnits="userSpaceOnUse">
<stop stop-color="#087DA7"/>
<stop offset="1" stop-color="#0B5C6F"/>
</linearGradient>
</defs>
</svg>
