<svg width="11" height="16" viewBox="0 0 11 16" fill="none" xmlns="http://www.w3.org/2000/svg">
<path d="M5.5 0.0229492C4.04184 0.0247923 2.64389 0.646237 1.61282 1.75096C0.58174 2.85569 0.00172609 4.35349 5.85144e-06 5.91581C-0.00174059 7.19253 0.387496 8.43462 1.108 9.45152C1.108 9.45152 1.258 9.66313 1.2825 9.69366L5.5 15.0229L9.7195 9.69098C9.7415 9.66259 9.892 9.45152 9.892 9.45152L9.8925 9.44991C10.6126 8.43346 11.0017 7.19195 11 5.91581C10.9983 4.35349 10.4183 2.85569 9.38718 1.75096C8.35611 0.646237 6.95816 0.0247923 5.5 0.0229492ZM5.5 8.05866C5.10444 8.05866 4.71776 7.93299 4.38886 7.69753C4.05996 7.46207 3.80362 7.1274 3.65224 6.73584C3.50087 6.34429 3.46126 5.91343 3.53843 5.49776C3.6156 5.08208 3.80608 4.70026 4.08579 4.40058C4.36549 4.10089 4.72186 3.89681 5.10982 3.81412C5.49778 3.73144 5.89991 3.77388 6.26537 3.93606C6.63082 4.09825 6.94317 4.37291 7.16294 4.7253C7.3827 5.07769 7.5 5.49199 7.5 5.91581C7.49934 6.48391 7.28841 7.02854 6.91348 7.43025C6.53855 7.83196 6.03023 8.05795 5.5 8.05866Z" fill="#055A78"/>
</svg>
