<svg width="19" height="19" viewBox="0 0 19 19" fill="none" xmlns="http://www.w3.org/2000/svg">
<path d="M9.94922 0.0192871C14.9165 0.0192871 18.9492 4.05204 18.9492 9.01929C18.9492 13.9865 14.9165 18.0193 9.94922 18.0193C4.98197 18.0193 0.949219 13.9865 0.949219 9.01929C0.949219 4.05204 4.98197 0.0192871 9.94922 0.0192871ZM3.38297 13.1735C4.08353 14.2812 5.05299 15.1937 6.20108 15.8259C7.34918 16.4581 8.63857 16.7895 9.94922 16.7893C12.71 16.7893 15.137 15.3463 16.5155 13.1735L9.94922 10.6715L3.38297 13.1735ZM11.3802 8.19279L16.8305 12.629C17.416 11.516 17.721 10.2769 17.7192 9.01929C17.7192 4.83654 14.4065 1.42104 10.2642 1.25529L11.3802 8.19279ZM9.63422 1.25529C5.49197 1.42104 2.17922 4.83654 2.17922 9.01929C2.17922 10.322 2.50022 11.5498 3.06797 12.629L8.51822 8.19279L9.63422 1.25529Z" fill="#fff"/>
</svg>
