<svg width="28" height="21" viewBox="0 0 28 21" fill="none" xmlns="http://www.w3.org/2000/svg">
<path d="M25.727 0.944325C25.6134 0.932621 25.4989 0.932621 25.3854 0.944325H2.05202C1.90247 0.946629 1.75392 0.969053 1.61035 1.01099L13.652 13.0027L25.727 0.944325Z" fill="#30AFE0"/>
<path d="M26.9602 2.10254L14.8269 14.1859C14.5146 14.4963 14.0922 14.6705 13.6519 14.6705C13.2116 14.6705 12.7892 14.4963 12.4769 14.1859L0.451888 2.19421C0.414921 2.33007 0.39532 2.47008 0.393555 2.61087V19.2775C0.393555 19.7196 0.569149 20.1435 0.88171 20.4561C1.19427 20.7686 1.61819 20.9442 2.06022 20.9442H25.3936C25.8356 20.9442 26.2595 20.7686 26.5721 20.4561C26.8846 20.1435 27.0602 19.7196 27.0602 19.2775V2.61087C27.0536 2.43725 27.0198 2.26574 26.9602 2.10254V2.10254ZM3.20189 19.2775H2.04355V18.0859L8.10189 12.0775L9.27689 13.2525L3.20189 19.2775ZM25.3769 19.2775H24.2102L18.1352 13.2525L19.3102 12.0775L25.3686 18.0859L25.3769 19.2775Z" fill="#30AFE0"/>
</svg>
