<svg width="50" height="51" viewBox="0 0 50 51" fill="none" xmlns="http://www.w3.org/2000/svg">
<path d="M50 25.0229C50 18.3925 47.3661 12.0337 42.6777 7.34528C37.9893 2.65687 31.6304 0.0229492 25 0.0229492C21.717 0.0229492 18.4661 0.669593 15.4329 1.92596C12.3998 3.18233 9.6438 5.02382 7.32233 7.34528C5.00087 9.66674 3.15938 12.4227 1.90301 15.4559C0.646641 18.489 0 21.7399 0 25.0229C0 31.6534 2.63392 38.0122 7.32233 42.7006C12.0107 47.389 18.3696 50.0229 25 50.0229C28.283 50.0229 31.5339 49.3763 34.5671 48.1199C37.6002 46.8636 40.3562 45.0221 42.6777 42.7006C47.3661 38.0122 50 31.6534 50 25.0229ZM10 22.5229H30L21.25 13.7729L24.8 10.2229L39.6 25.0229L24.8 39.8229L21.25 36.2729L30 27.5229H10V22.5229Z" fill="black"/>
</svg>
