<svg width="26" height="26" viewBox="0 0 26 26" fill="none" xmlns="http://www.w3.org/2000/svg">
<path d="M25.0338 22.1138L18.6681 15.7475C18.5314 15.6124 18.3536 15.5268 18.1628 15.5041C17.972 15.4815 17.779 15.5231 17.6146 15.6225C16.4663 16.3173 15.6096 17.4057 15.204 18.6851C14.9986 19.328 14.2487 19.6226 13.6684 19.2744L13.6594 19.2655L13.6505 19.2565C10.8621 17.5841 8.52859 15.2504 6.85623 12.4618C6.85623 12.4528 6.8473 12.4439 6.8473 12.4439C6.49018 11.8635 6.7848 11.1135 7.42763 10.9081C8.70961 10.5076 9.79955 9.64953 10.49 8.49738C10.6953 8.15808 10.6417 7.7295 10.365 7.44378L3.99924 1.07757C3.86259 0.942446 3.68477 0.856782 3.49395 0.83414C3.30312 0.811498 3.1102 0.853172 2.94573 0.952563C2.16731 1.41961 1.51735 2.07305 1.05444 2.85398C0.591534 3.63491 0.33023 4.51877 0.294084 5.42588V5.43481C0.285156 5.5241 0.285156 5.61338 0.285156 5.70267C0.285156 5.82767 0.294084 5.94375 0.303012 6.05982C0.409259 9.59546 1.4206 13.0447 3.24035 16.0779C4.9099 18.8637 7.24906 21.203 10.0346 22.8727L10.0436 22.8816C13.1148 24.7299 16.6146 25.7388 20.1948 25.8192C20.2662 25.8192 20.3376 25.8281 20.4091 25.8281H20.909V25.8103C21.777 25.7367 22.6152 25.459 23.3554 24.9997C24.0955 24.5403 24.7165 23.9125 25.1677 23.1674C25.3642 22.8281 25.3106 22.3905 25.0338 22.1138Z" fill="#30AFE0"/>
</svg>
