<svg width="12" height="13" viewBox="0 0 12 13" fill="none" xmlns="http://www.w3.org/2000/svg">
<path d="M11.7796 10.0771L9.04134 7.58752C8.91191 7.46987 8.74182 7.40713 8.56699 7.41253C8.39216 7.41794 8.22628 7.49107 8.10435 7.61648L6.49241 9.27421C6.10441 9.20012 5.32438 8.95695 4.52144 8.15603C3.7185 7.35243 3.47533 6.57038 3.40325 6.18508L5.05965 4.57248C5.18522 4.45064 5.25846 4.28473 5.26386 4.10985C5.26927 3.93497 5.20642 3.76485 5.08862 3.6355L2.59964 0.89798C2.48179 0.768215 2.31799 0.689503 2.14304 0.678561C1.96808 0.667618 1.79575 0.725308 1.66265 0.839377L0.200925 2.09295C0.0844657 2.20983 0.0149551 2.36539 0.00557879 2.53012C-0.00452532 2.69852 -0.197177 6.68758 2.89603 9.78211C5.59449 12.4799 8.97465 12.6772 9.90558 12.6772C10.0416 12.6772 10.1252 12.6732 10.1474 12.6719C10.3121 12.6626 10.4676 12.5928 10.5839 12.4758L11.8368 11.0135C11.9513 10.8808 12.0094 10.7086 11.9987 10.5336C11.988 10.3587 11.9094 10.1949 11.7796 10.0771Z" fill="#055A78"/>
</svg>
