<svg width="50" height="51" viewBox="0 0 50 51" fill="none" xmlns="http://www.w3.org/2000/svg">
<path d="M0 25.0229C0 18.3925 2.63392 12.0337 7.32233 7.34528C12.0107 2.65687 18.3696 0.0229492 25 0.0229492C28.283 0.0229492 31.5339 0.669593 34.5671 1.92596C37.6002 3.18233 40.3562 5.02382 42.6777 7.34528C44.9991 9.66674 46.8406 12.4227 48.097 15.4559C49.3534 18.489 50 21.7399 50 25.0229C50 31.6534 47.3661 38.0122 42.6777 42.7006C37.9893 47.389 31.6304 50.0229 25 50.0229C21.717 50.0229 18.4661 49.3763 15.4329 48.1199C12.3998 46.8636 9.6438 45.0221 7.32233 42.7006C2.63392 38.0122 0 31.6534 0 25.0229ZM40 22.5229H20L28.75 13.7729L25.2 10.2229L10.4 25.0229L25.2 39.8229L28.75 36.2729L20 27.5229H40V22.5229Z" fill="black"/>
</svg>
