<svg width="31" height="31" viewBox="0 0 31 31" fill="none" xmlns="http://www.w3.org/2000/svg">
<path d="M25.9941 20.8396C24.8066 20.8396 23.7108 21.2223 22.8525 21.8613L14.2191 16.1254C14.3637 15.3967 14.3637 14.65 14.2191 13.9213L22.8525 8.1853C23.7108 8.82434 24.8066 9.20699 25.9941 9.20699C28.7525 9.20699 30.9941 7.14832 30.9941 4.61515C30.9941 2.08199 28.7525 0.0233154 25.9941 0.0233154C23.2358 0.0233154 20.9941 2.08199 20.9941 4.61515C20.9941 5.05903 21.0608 5.48377 21.19 5.88939L12.99 11.3422C11.7733 9.86133 9.83997 8.90087 7.66081 8.90087C3.97747 8.90087 0.994141 11.6407 0.994141 15.0233C0.994141 18.406 3.97747 21.1458 7.66081 21.1458C9.83997 21.1458 11.7733 20.1853 12.99 18.7044L21.19 24.1572C21.0608 24.5629 20.9941 24.9914 20.9941 25.4315C20.9941 27.9646 23.2358 30.0233 25.9941 30.0233C28.7525 30.0233 30.9941 27.9646 30.9941 25.4315C30.9941 22.8983 28.7525 20.8396 25.9941 20.8396ZM25.9941 2.62536C27.19 2.62536 28.1608 3.51694 28.1608 4.61515C28.1608 5.71337 27.19 6.60495 25.9941 6.60495C24.7983 6.60495 23.8275 5.71337 23.8275 4.61515C23.8275 3.51694 24.7983 2.62536 25.9941 2.62536ZM7.66081 18.3907C5.63997 18.3907 3.99414 16.8792 3.99414 15.0233C3.99414 13.1674 5.63997 11.656 7.66081 11.656C9.68164 11.656 11.3275 13.1674 11.3275 15.0233C11.3275 16.8792 9.68164 18.3907 7.66081 18.3907ZM25.9941 27.4213C24.7983 27.4213 23.8275 26.5297 23.8275 25.4315C23.8275 24.3333 24.7983 23.4417 25.9941 23.4417C27.19 23.4417 28.1608 24.3333 28.1608 25.4315C28.1608 26.5297 27.19 27.4213 25.9941 27.4213Z" fill="#4C4C4C"/>
</svg>
