<svg width="31" height="29" viewBox="0 0 31 29" fill="none" xmlns="http://www.w3.org/2000/svg">
<g filter="url(#filter0_d_589_8171)">
<path d="M27.6616 5.10982C27.4564 4.73471 27.1625 4.42212 26.8086 4.20253C26.4548 3.98294 26.053 3.86385 25.6425 3.85687H10.4397L9.75086 1.02521C9.68126 0.751862 9.52598 0.511428 9.31031 0.343067C9.09464 0.174705 8.83129 0.0883355 8.56315 0.0980249H6.18772C5.87271 0.0980249 5.57061 0.230032 5.34787 0.465005C5.12513 0.699979 5 1.01867 5 1.35097C5 1.68328 5.12513 2.00197 5.34787 2.23694C5.57061 2.47192 5.87271 2.60392 6.18772 2.60392H7.66048L10.9386 15.4592C11.0082 15.7325 11.1635 15.973 11.3791 16.1413C11.5948 16.3097 11.8582 16.3961 12.1263 16.3864H22.8157C23.0351 16.3857 23.2499 16.3209 23.4365 16.1993C23.6231 16.0776 23.7741 15.9039 23.8728 15.6972L27.7685 7.4779C27.9374 7.10454 28.016 6.69289 27.9973 6.27968C27.9787 5.86647 27.8633 5.46457 27.6616 5.10982Z" fill="#F5F5F5"/>
<path d="M13.908 20.1452C14.892 20.1452 15.6896 19.3038 15.6896 18.2658C15.6896 17.2278 14.892 16.3864 13.908 16.3864C12.9241 16.3864 12.1265 17.2278 12.1265 18.2658C12.1265 19.3038 12.9241 20.1452 13.908 20.1452Z" fill="#F5F5F5"/>
<path d="M21.034 20.1452C22.018 20.1452 22.8156 19.3038 22.8156 18.2658C22.8156 17.2278 22.018 16.3864 21.034 16.3864C20.0501 16.3864 19.2524 17.2278 19.2524 18.2658C19.2524 19.3038 20.0501 20.1452 21.034 20.1452Z" fill="#F5F5F5"/>
</g>
<defs>
<filter id="filter0_d_589_8171" x="0" y="0.09729" width="31" height="28.0479" filterUnits="userSpaceOnUse" color-interpolation-filters="sRGB">
<feFlood flood-opacity="0" result="BackgroundImageFix"/>
<feColorMatrix in="SourceAlpha" type="matrix" values="0 0 0 0 0 0 0 0 0 0 0 0 0 0 0 0 0 0 127 0" result="hardAlpha"/>
<feOffset dx="-1" dy="4"/>
<feGaussianBlur stdDeviation="2"/>
<feComposite in2="hardAlpha" operator="out"/>
<feColorMatrix type="matrix" values="0 0 0 0 0 0 0 0 0 0 0 0 0 0 0 0 0 0 0.25 0"/>
<feBlend mode="normal" in2="BackgroundImageFix" result="effect1_dropShadow_589_8171"/>
<feBlend mode="normal" in="SourceGraphic" in2="effect1_dropShadow_589_8171" result="shape"/>
</filter>
</defs>
</svg>
