<svg width="25" height="17" viewBox="0 0 25 17" fill="none" xmlns="http://www.w3.org/2000/svg">
<path d="M12.2832 0.993286C5.6562 0.993286 0.283203 4.47762 0.283203 8.7739C0.283203 13.0732 5.6562 16.5585 12.2832 16.5585C18.9102 16.5585 24.2832 13.0742 24.2832 8.7739C24.2832 4.47361 18.9102 0.993286 12.2832 0.993286ZM12.2832 13.2185C11.2972 13.2185 10.4932 11.2719 10.4432 8.82302C11.6675 8.93048 12.8989 8.93048 14.1232 8.82302C14.0732 11.2709 13.2692 13.2185 12.2832 13.2185ZM10.5642 6.87937C10.8322 5.14822 11.5012 3.91929 12.2832 3.91929C13.0652 3.91929 13.7332 5.14822 14.0022 6.87937C12.8585 6.98116 11.708 6.98116 10.5642 6.87937ZM12.2832 2.11798C10.9962 2.11798 9.8982 4.0506 9.4932 6.74805C7.0532 6.36714 5.3502 5.49706 5.3502 4.48664C5.3502 3.12338 8.4542 2.01974 12.2832 2.01974C16.1132 2.01974 19.2162 3.12438 19.2162 4.48664C19.2162 5.49706 17.5132 6.36714 15.0732 6.74805C14.6682 4.0516 13.5702 2.11898 12.2832 2.11898V2.11798ZM2.0032 8.4832C2.0032 7.16505 2.5102 5.92709 3.3912 4.86455C3.3822 4.93872 3.3762 5.01491 3.3762 5.09109C3.3762 6.75206 5.8612 8.16845 9.3292 8.6897C9.3262 8.80998 9.3262 8.93228 9.3262 9.05457C9.3262 12.152 10.1922 14.7732 11.3892 15.6634C6.1292 15.3456 2.0042 12.2522 2.0042 8.4832H2.0032ZM13.1772 15.6634C14.3742 14.7732 15.2402 12.151 15.2402 9.05457C15.2402 8.93127 15.2382 8.81099 15.2372 8.6907C18.7032 8.16945 21.1902 6.75407 21.1902 5.09109C21.1902 5.01491 21.1842 4.93872 21.1752 4.86455C22.0562 5.93009 22.5622 7.16505 22.5622 8.4832C22.5622 12.2522 18.4372 15.3456 13.1772 15.6634Z" fill="#F0F0F0"/>
</svg>
