<svg width="21" height="21" viewBox="0 0 21 21" fill="none" xmlns="http://www.w3.org/2000/svg">
<path fill-rule="evenodd" clip-rule="evenodd" d="M10.3574 0.751953C4.83451 0.751953 0.357422 5.23999 0.357422 10.7759C0.357422 16.312 4.83461 20.7999 10.3574 20.7999C15.88 20.7999 20.3574 16.312 20.3574 10.7759C20.3574 5.24009 15.88 0.751953 10.3574 0.751953ZM10.3574 19.9012C5.32968 19.9012 1.25401 15.8157 1.25401 10.7759C1.25401 5.73635 5.32968 1.6508 10.3574 1.6508C15.3849 1.6508 19.4608 5.73635 19.4608 10.7759C19.4608 15.8157 15.3849 19.9012 10.3574 19.9012Z" fill="#F5F5F5"/>
<path fill-rule="evenodd" clip-rule="evenodd" d="M8.36426 3.95831C9.01173 3.76883 9.68286 3.67296 10.3574 3.67359C11.0485 3.67359 11.7166 3.77282 12.3482 3.95777L10.3574 8.3813L8.36426 3.95831Z" fill="#F5F5F5"/>
<path fill-rule="evenodd" clip-rule="evenodd" d="M14.1605 4.78247C14.9066 5.2596 15.5576 5.8718 16.0801 6.58778L12.8126 13.836L11.5516 11.0256H9.16257L7.90176 13.8359L4.63888 6.58103C5.16046 5.86789 5.80964 5.25806 6.5534 4.78258L9.16257 10.5848H11.5598L14.1605 4.78247ZM3.51106 8.93778C3.35155 9.53741 3.27101 10.1554 3.27149 10.776C3.27149 13.5594 4.86851 15.9687 7.19417 17.1336L3.51106 8.93778Z" fill="#F5F5F5"/>
<path fill-rule="evenodd" clip-rule="evenodd" d="M8.39746 17.6032C9.03478 17.7865 9.69461 17.8792 10.3576 17.8785C11.0369 17.8785 11.6937 17.7826 12.3154 17.604L10.3576 13.2455L8.39746 17.6032ZM13.5202 17.1336C15.846 15.9686 17.443 13.5594 17.443 10.7759C17.443 10.1458 17.3611 9.53491 17.2077 8.95325L13.5202 17.1336Z" fill="#F5F5F5"/>
</svg>
