<svg width="25" height="10" viewBox="0 0 25 10" fill="none" xmlns="http://www.w3.org/2000/svg">
<path d="M12.998 1.00278C6.87005 1.00278 1.90305 2.70084 1.90305 4.77781C1.90305 6.85478 6.87005 8.55184 12.998 8.55184C19.125 8.55184 24.092 6.85478 24.092 4.77781C24.092 2.69984 19.125 1.00278 12.998 1.00278ZM7.30005 7.25774C6.64405 7.26275 6.06705 6.85678 6.00005 6.1541C5.96197 5.78796 6.06739 5.42131 6.29405 5.13166C6.48905 4.87705 6.81905 4.66554 7.09805 4.61342C7.18805 4.59638 7.31105 4.6074 7.36205 4.66755C7.44105 4.76077 7.41805 4.86201 7.33905 4.90211C7.12605 5.01137 6.86905 5.19781 6.74205 5.45343C6.68387 5.56182 6.6563 5.68406 6.66229 5.807C6.66828 5.92993 6.70761 6.0489 6.77605 6.15109C7.03905 6.54905 7.77305 6.56007 8.45505 5.92556C8.62405 5.76918 8.77505 5.62083 8.92805 5.4444C9.22805 5.09958 9.32805 4.97328 9.72805 4.41795C9.73305 4.41193 9.73405 4.40391 9.73205 4.39991C9.72905 4.39289 9.72305 4.38988 9.71205 4.38988C9.44505 4.3969 9.21205 4.47709 8.98705 4.64549C8.92205 4.69361 8.82805 4.68659 8.78705 4.62444C8.74105 4.55427 8.77405 4.46105 8.84905 4.40893C9.21205 4.15532 9.60905 4.11021 10.015 4.04105C10.015 4.04105 10.043 4.04305 10.066 4.01098C10.233 3.79746 10.358 3.605 10.536 3.38849C10.714 3.16796 10.946 2.96748 11.122 2.81511C11.368 2.60261 11.526 2.53144 11.686 2.44423C11.729 2.42217 11.681 2.39511 11.668 2.39511C10.772 2.22671 9.84105 2.00818 8.95105 2.33898C8.33505 2.56953 8.06405 3.0587 8.19405 3.38648C8.28705 3.61804 8.59105 3.65713 8.87705 3.51679C9.12576 3.39315 9.33677 3.20482 9.48805 2.97149C9.57505 2.83717 9.75805 2.9334 9.65905 3.16696C9.39905 3.77942 8.90205 4.26659 8.29605 4.28764C7.78005 4.30367 7.44705 3.92377 7.44805 3.45464C7.45005 2.52843 8.47805 1.91897 9.55805 1.82876C10.859 1.7205 12.091 2.06833 13.383 2.2247C14.372 2.34499 15.321 2.348 16.315 2.11845C16.433 2.09339 16.515 2.16857 16.508 2.28685C16.498 2.45926 16.365 2.62466 16.038 2.80409C15.665 3.00858 15.275 3.07073 14.868 3.07474C13.884 3.08276 12.967 2.69783 12.018 2.49134C12.02 2.53244 12.03 2.58256 11.995 2.60862C11.47 2.99755 10.995 3.3925 10.677 3.94582C10.666 3.95885 10.672 3.97088 10.69 3.96988C10.967 3.95484 11.215 3.94782 11.473 3.92778C11.518 3.92377 11.52 3.91274 11.516 3.87966C11.5019 3.77717 11.5127 3.67278 11.5476 3.57538C11.5824 3.47799 11.6402 3.39048 11.716 3.32032C11.888 3.16696 12.103 3.14992 12.246 3.26018C12.406 3.38648 12.393 3.61403 12.304 3.78443C12.2644 3.85927 12.2102 3.92534 12.1446 3.97873C12.0789 4.03211 12.0033 4.07171 11.922 4.09518C11.922 4.09518 11.892 4.10119 11.896 4.12926C11.902 4.17236 12.096 4.28062 12.113 4.30969C12.13 4.33675 12.121 4.37986 12.092 4.41193C12.0805 4.42602 12.066 4.43737 12.0496 4.44517C12.0332 4.45297 12.0152 4.45703 11.997 4.45704C11.964 4.45704 11.944 4.44501 11.901 4.42196C11.7981 4.36724 11.7065 4.29343 11.631 4.20444C11.607 4.17336 11.594 4.17236 11.532 4.17537C11.253 4.19241 10.818 4.23451 10.523 4.2716C10.452 4.27962 10.441 4.29365 10.427 4.31871C9.95705 5.09557 9.45505 5.93257 8.90405 6.49391C8.31205 7.09535 7.82105 7.25373 7.30005 7.25774ZM20.048 3.48271C19.957 3.64109 18.199 6.32351 18.088 6.60017C18.053 6.68838 18.048 6.75554 18.084 6.80466C18.176 6.92896 18.381 6.85578 18.509 6.76657C18.89 6.50394 19.154 6.18518 19.446 5.90651C19.463 5.89348 19.492 5.88847 19.511 5.90651C19.554 5.94661 19.617 5.99773 19.661 6.04384C19.665 6.04743 19.6681 6.05178 19.6703 6.05661C19.6726 6.06144 19.6738 6.06667 19.674 6.07199C19.6742 6.0773 19.6733 6.08261 19.6714 6.08758C19.6695 6.09256 19.6667 6.09711 19.663 6.10097C19.3959 6.43756 19.0928 6.74378 18.759 7.01416C18.289 7.37903 17.82 7.47225 17.587 7.2387C17.5049 7.15276 17.4553 7.04068 17.447 6.92194C17.445 6.8648 17.416 6.86179 17.389 6.88786C17.111 7.16352 16.629 7.46825 16.191 7.25072C15.825 7.07029 15.74 6.63124 15.808 6.26236C15.809 6.25434 15.802 6.20222 15.757 6.23229C15.6647 6.29959 15.5638 6.3542 15.457 6.39468C15.3422 6.44723 15.2172 6.47359 15.091 6.47186C15.0003 6.4729 14.9109 6.45002 14.8317 6.40551C14.7526 6.361 14.6865 6.29643 14.64 6.21826C14.581 6.11162 14.5484 5.99232 14.545 5.87042C14.544 5.8594 14.528 5.83835 14.512 5.86541C14.212 6.32351 13.933 6.76657 13.637 7.23168C13.621 7.25373 13.607 7.26777 13.577 7.26877L12.99 7.26977C12.954 7.26977 12.937 7.2417 12.956 7.20662C13.06 7.00614 13.63 6.17415 14.016 5.46646C14.123 5.27199 14.101 5.17175 14.035 5.12865C13.952 5.07452 13.787 5.15571 13.648 5.26197C13.269 5.54966 12.951 5.99873 12.789 6.19921C12.694 6.31649 12.604 6.49091 12.356 6.76055C11.965 7.18657 11.446 7.43116 10.948 7.26175C10.8165 7.21707 10.6979 7.14069 10.6027 7.03932C10.5075 6.93794 10.4386 6.81468 10.402 6.68036C10.387 6.62824 10.358 6.6142 10.329 6.64828C10.249 6.74852 10.084 6.89788 9.94605 6.9911C9.93105 7.00213 9.89405 7.02418 9.86205 7.00814C9.80184 6.94953 9.75062 6.88231 9.71005 6.80867C9.70402 6.7953 9.70232 6.78038 9.70519 6.76599C9.70806 6.75161 9.71535 6.73849 9.72605 6.72848C9.92305 6.55506 10.031 6.45683 10.117 6.34756C10.181 6.26737 10.23 6.17716 10.287 6.03181C10.407 5.72908 10.68 5.16373 11.225 4.87103C11.4264 4.75676 11.6477 4.68224 11.877 4.65151C11.977 4.64148 12.06 4.65351 12.09 4.7317C12.101 4.76478 12.129 4.83695 12.146 4.89008C12.157 4.92215 12.149 4.94722 12.111 4.96125C11.791 5.08354 11.468 5.27299 11.246 5.57271C10.993 5.91152 10.925 6.3205 11.094 6.55506C11.217 6.72547 11.416 6.75554 11.608 6.69439C11.898 6.60217 12.146 6.33052 12.274 6.0298C12.412 5.70002 12.434 5.31109 12.332 4.96827C12.316 4.90912 12.331 4.86402 12.369 4.83194C12.446 4.76879 12.553 4.71967 12.584 4.70363C12.6146 4.68726 12.6501 4.68281 12.6837 4.69114C12.7173 4.69947 12.7466 4.71999 12.766 4.74874C12.872 4.90612 12.929 5.12765 12.936 5.3572C12.942 5.40631 12.962 5.40731 12.986 5.38225C13.176 5.17977 13.352 4.96325 13.554 4.80086C13.739 4.65351 13.976 4.53322 14.197 4.53824C14.483 4.54425 14.625 4.73872 14.616 5.08555C14.615 5.12965 14.646 5.12564 14.667 5.09657C14.7333 4.99677 14.8142 4.90756 14.907 4.83194C15.105 4.66855 15.307 4.59537 15.518 4.60941C15.778 4.62945 15.986 4.86702 15.943 5.13767C15.9327 5.22327 15.9017 5.30506 15.8527 5.37596C15.8038 5.44687 15.7383 5.50476 15.662 5.54464C15.5979 5.57888 15.525 5.59298 15.4528 5.58512C15.3805 5.57725 15.3123 5.54778 15.257 5.50054C15.2142 5.45992 15.1828 5.4087 15.1659 5.35204C15.1491 5.29539 15.1474 5.23528 15.161 5.17777C15.166 5.15271 15.134 5.12965 15.107 5.15772C14.853 5.42235 14.834 5.76517 15 5.91954C15.183 6.08995 15.458 5.97567 15.658 5.84436C16.024 5.60479 16.308 5.28001 16.637 5.02941C16.855 4.86301 17.104 4.71466 17.383 4.67757C17.5363 4.65408 17.6931 4.67208 17.837 4.72969C18.037 4.81089 18.163 4.98029 18.179 5.12664C18.183 5.16975 18.215 5.17476 18.242 5.13667C18.4 4.89008 19.247 3.61603 19.317 3.48271C19.337 3.44161 19.361 3.4356 19.406 3.4356H20.012C20.047 3.4356 20.063 3.45565 20.048 3.48271ZM17.728 5.692C17.7218 5.70445 17.7208 5.71885 17.725 5.73209C17.728 5.75214 17.755 5.77219 17.781 5.78221C17.791 5.78522 17.796 5.79224 17.785 5.81429C17.71 5.97467 17.642 6.06689 17.548 6.20623C17.465 6.32935 17.3638 6.43918 17.248 6.53201C17.07 6.67936 16.824 6.83974 16.62 6.73248C16.53 6.68537 16.49 6.55807 16.493 6.45582C16.497 6.16713 16.625 5.87042 16.862 5.57872C17.15 5.22287 17.469 5.03843 17.678 5.13968C17.894 5.24292 17.826 5.49452 17.728 5.69099V5.692ZM11.779 3.80649C11.7715 3.74244 11.7796 3.67752 11.8026 3.61729C11.8256 3.55706 11.8628 3.50332 11.911 3.46066C11.968 3.41054 12.044 3.39851 12.091 3.43861C12.143 3.48371 12.118 3.59598 12.065 3.67317C12.0075 3.76008 11.9204 3.82312 11.82 3.85059C11.802 3.8546 11.786 3.84658 11.779 3.80649ZM12.998 0.265015C6.33805 0.265015 0.998047 2.2668 0.998047 4.7758C0.998047 7.26977 6.38105 9.28659 12.998 9.28659C19.615 9.28659 24.998 7.26175 24.998 4.7758C24.998 2.28986 19.615 0.265015 12.998 0.265015ZM12.998 8.89365C6.64705 8.89365 1.49805 7.05125 1.49805 4.77781C1.49805 2.50337 6.64805 0.660962 12.998 0.660962C19.348 0.660962 24.496 2.50337 24.496 4.77781C24.496 7.05125 19.348 8.89365 12.998 8.89365Z" fill="#F5F5F5"/>
</svg>
