<svg width="25" height="13" viewBox="0 0 25 13" fill="none" xmlns="http://www.w3.org/2000/svg">
<path d="M4.29413 3.46641L4.26413 3.49347V3.79921L4.29413 3.82727H4.48813C4.56013 3.82727 4.61513 3.8824 4.61513 3.95357V9.46977C4.61513 9.53994 4.67013 9.59607 4.73713 9.59607H6.13713C6.15372 9.59621 6.17016 9.59303 6.18551 9.58673C6.20086 9.58043 6.2148 9.57113 6.22653 9.55938C6.23825 9.54762 6.24753 9.53364 6.25381 9.51826C6.2601 9.50288 6.26327 9.48639 6.26313 9.46977V7.15022C6.26313 7.09409 6.29313 7.06602 6.33113 7.06602C6.38513 7.06602 6.41113 7.10812 6.42713 7.13619L8.08013 9.45674C8.13513 9.53994 8.23213 9.59607 8.29913 9.59607H9.96413C10.0321 9.59607 10.1241 9.50585 10.0481 9.4006L7.94113 6.41346L7.91513 6.34329L7.94113 6.26109L9.70313 3.64684C9.74913 3.57066 9.69013 3.46641 9.60613 3.46641H8.02513C7.95313 3.46641 7.86113 3.52154 7.80213 3.60574L6.42713 5.55039C6.38513 5.61756 6.33913 5.62056 6.33413 5.62056H6.33113C6.32195 5.62086 6.31281 5.61923 6.30429 5.61578C6.29578 5.61233 6.28807 5.60714 6.28167 5.60054C6.27527 5.59393 6.27031 5.58606 6.26712 5.57743C6.26393 5.56879 6.26257 5.55959 6.26313 5.55039V3.59171C6.26314 3.57513 6.25983 3.55872 6.25342 3.54344C6.247 3.52816 6.23759 3.51432 6.22576 3.50274C6.21393 3.49116 6.1999 3.48206 6.18451 3.476C6.16912 3.46993 6.15267 3.46701 6.13613 3.46741L4.29413 3.46641ZM15.5461 3.46641L15.5201 3.49347V3.79921L15.5461 3.82727H15.7141C15.7821 3.82727 15.8411 3.86737 15.8411 3.93754L15.8241 4.00871L14.0071 9.44271V9.45273C14.0035 9.46861 14.0031 9.48507 14.006 9.50111C14.0089 9.51714 14.0151 9.5324 14.0241 9.54595C14.0281 9.55096 14.0281 9.55598 14.0321 9.55898C14.0545 9.58141 14.0845 9.59464 14.1161 9.59607H15.5331C15.6011 9.59607 15.6731 9.53994 15.7021 9.46977L16.9071 5.66266C16.9071 5.66266 16.9241 5.60553 16.9711 5.60553C17.0171 5.60553 17.0291 5.66266 17.0291 5.66266L18.2521 9.46977C18.2771 9.53994 18.3491 9.59607 18.4201 9.59607H19.8331C19.8524 9.59669 19.8716 9.59219 19.8886 9.58305C19.9056 9.57389 19.92 9.56041 19.9301 9.54395C19.9457 9.51664 19.9517 9.48486 19.9471 9.45373C19.9471 9.45072 19.9421 9.44671 19.9421 9.44371L17.9741 3.54961C17.9441 3.47944 17.8771 3.46641 17.8051 3.46641H15.5461ZM10.8661 3.46641L10.8541 3.49347V3.79921L10.8661 3.82727H11.0601C11.1311 3.82727 11.1871 3.8824 11.1871 3.95357V9.46977C11.1871 9.53994 11.2421 9.59607 11.3131 9.59607H12.7511C12.7677 9.59621 12.7842 9.59303 12.7995 9.58673C12.8149 9.58043 12.8288 9.57113 12.8405 9.55938C12.8523 9.54762 12.8615 9.53364 12.8678 9.51826C12.8741 9.50288 12.8773 9.48639 12.8771 9.46977V3.59171C12.8771 3.57522 12.8739 3.55889 12.8675 3.54368C12.8611 3.52846 12.8518 3.51467 12.8401 3.5031C12.8284 3.49153 12.8145 3.48242 12.7992 3.47629C12.7839 3.47016 12.7676 3.46715 12.7511 3.46741L10.8661 3.46641ZM22.6281 6.53876C22.6281 9.44772 17.8771 11.8154 12.0341 11.8154C6.19113 11.8154 1.44013 9.44772 1.44013 6.53876C1.44013 3.6308 6.19113 1.26314 12.0341 1.26314C17.8761 1.26314 22.6281 3.6318 22.6281 6.53876ZM20.5121 2.26353C18.2441 1.12882 15.2341 0.502319 12.0341 0.502319C8.83413 0.502319 5.82413 1.12882 3.56013 2.26353C1.28413 3.40326 0.0361328 4.91989 0.0361328 6.53876C0.0361328 8.15763 1.28413 9.67626 3.56013 10.816C5.82413 11.9507 8.83413 12.5752 12.0341 12.5752C15.2341 12.5752 18.2441 11.9507 20.5121 10.816C22.7841 9.67526 24.0361 8.15763 24.0361 6.53876C24.0361 4.91989 22.7841 3.40326 20.5121 2.26353Z" fill="#F5F5F5"/>
</svg>
