<svg width="25" height="21" viewBox="0 0 25 21" fill="none" xmlns="http://www.w3.org/2000/svg">
<path d="M20.785 13.738L20.775 13.766C19.528 17.4178 16.09 19.8666 12.214 19.8666C8.33798 19.8666 4.89398 17.4127 3.65198 13.762L3.64198 13.7329H0.918984V14.0627L2.05198 14.196C2.75198 14.2762 2.89898 14.587 3.08998 14.9779L3.13798 15.0741C4.77598 18.5775 8.34198 20.8399 12.218 20.8399C16.095 20.8399 19.661 18.5775 21.299 15.0792L21.347 14.9839C21.537 14.593 21.685 14.2823 22.385 14.2011L23.519 14.0667V13.738H20.785ZM3.65198 7.7807C4.89898 4.12897 8.33798 1.6761 12.214 1.6761C16.09 1.6761 19.533 4.12897 20.776 7.7807L20.786 7.80877H23.514V7.47998L22.38 7.34666C21.68 7.26547 21.533 6.95573 21.342 6.56379L21.295 6.46756C19.657 2.9742 16.089 0.711792 12.214 0.711792C8.33298 0.711792 4.77098 2.9742 3.13298 6.47758L3.08498 6.57281C2.89498 6.96375 2.74698 7.27449 2.04698 7.35568L0.913984 7.489V7.81879H3.63798L3.65198 7.7807ZM17.514 9.3705L15.771 12.1722H16.523L16.833 11.671H18.866L19.176 12.1722H19.923L18.18 9.3705H17.514ZM18.547 11.1407H17.152L17.852 10.014L18.547 11.1407ZM21.357 10.0722L23.428 12.1722H24.209V9.3705H23.595V11.4605L21.533 9.3705H20.738V12.1722H21.357V10.0722ZM0.208984 12.1722H0.827984V10.0722L2.90398 12.1722H3.68498V9.3705H3.06598V11.4605L1.00398 9.3705H0.208984V12.1722ZM5.05198 9.3705H5.67098V12.1722H5.05098L5.05198 9.3705ZM9.53798 11.5798C9.51798 11.5848 9.44198 11.5848 9.41398 11.5848H6.95198V12.1582H9.45198C9.47098 12.1582 9.61898 12.1582 9.64698 12.1532C10.157 12.105 10.39 11.68 10.39 11.3081C10.39 10.9262 10.147 10.5162 9.68498 10.4731C9.59498 10.4631 9.51898 10.4631 9.48498 10.4631H7.85198C7.79132 10.4651 7.73062 10.4604 7.67098 10.4491C7.54198 10.415 7.49498 10.3007 7.49498 10.2055C7.49498 10.1193 7.54198 10.005 7.67498 9.96693C7.73149 9.95495 7.78929 9.95023 7.84698 9.9529H10.204V9.38955H7.80898C7.70898 9.38955 7.63298 9.39356 7.57098 9.40358C7.3759 9.42766 7.19672 9.52359 7.06827 9.67272C6.93982 9.82186 6.87128 10.0135 6.87598 10.2105C6.87598 10.5543 7.08998 10.9553 7.56098 11.0225C7.64698 11.0315 7.76598 11.0315 7.81898 11.0315H9.40898C9.43798 11.0315 9.50898 11.0315 9.52298 11.0365C9.70398 11.0595 9.76598 11.1939 9.76598 11.3132C9.76752 11.378 9.74508 11.4411 9.70298 11.4903C9.66089 11.5395 9.60212 11.5714 9.53798 11.5798ZM14.195 11.5798C14.175 11.5848 14.099 11.5848 14.066 11.5848H11.609V12.1582H14.109C14.128 12.1582 14.276 12.1582 14.304 12.1532C14.814 12.105 15.047 11.68 15.047 11.3081C15.047 10.9262 14.804 10.5162 14.342 10.4731C14.252 10.4631 14.176 10.4631 14.142 10.4631H12.509C12.4483 10.4651 12.3876 10.4604 12.328 10.4491C12.199 10.415 12.152 10.3007 12.152 10.2055C12.152 10.1193 12.199 10.005 12.332 9.96693C12.3885 9.95495 12.4463 9.95023 12.504 9.9529H14.861V9.38955H12.466C12.366 9.38955 12.29 9.39356 12.228 9.40358C12.0329 9.42766 11.8537 9.52359 11.7253 9.67272C11.5968 9.82186 11.5283 10.0135 11.533 10.2105C11.533 10.5543 11.747 10.9553 12.219 11.0225C12.304 11.0315 12.423 11.0315 12.476 11.0315H14.066C14.095 11.0315 14.166 11.0315 14.18 11.0365C14.361 11.0595 14.423 11.1939 14.423 11.3132C14.4234 11.3777 14.4006 11.4402 14.3587 11.4892C14.3168 11.5382 14.2587 11.5704 14.195 11.5798Z" fill="#F0F0F0"/>
</svg>
