<svg width="21" height="17" viewBox="0 0 21 17" fill="none" xmlns="http://www.w3.org/2000/svg">
<path d="M20.3507 4.56282C20.0757 1.91974 18.2923 1.36369 16.7223 1.10989C15.934 0.978476 14.5306 0.863488 13.6256 0.830635C12.8372 0.781354 10.9855 0.756714 10.4297 0.756714C9.88216 0.756714 8.02129 0.781354 7.23377 0.830635C6.33708 0.863488 4.92539 0.978476 4.13704 1.10989C2.56783 1.3719 0.781962 1.92631 0.508622 4.56282C0.441954 5.28313 0.425287 6.22439 0.433621 7.23054C0.458621 8.89869 0.600291 10.028 0.683626 10.8141C0.741961 11.3537 0.965299 12.966 1.25614 13.8005C1.65448 14.9462 2.01949 15.2813 2.44283 15.6255C3.22368 16.2472 4.50204 16.4435 4.76788 16.4928C6.21208 16.7474 9.13465 16.7951 10.4213 16.7951C11.708 16.7951 14.6298 16.754 16.0748 16.4928C16.349 16.4435 17.6273 16.2546 18.3998 15.6255C18.8232 15.2813 19.1882 14.9462 19.5865 13.8005C19.8782 12.966 20.1099 11.3537 20.1682 10.8141C20.2516 10.028 20.4007 8.89869 20.4174 7.23054C20.4507 6.22439 20.4257 5.28313 20.3507 4.56282ZM19.3707 8.99807C19.2124 11.1089 19.0224 12.3689 18.7482 13.2855C18.5065 14.0871 18.2173 14.6185 17.7773 15.0037C17.0548 15.6501 16.0581 15.7889 15.4773 15.8711C14.2156 16.06 12.098 16.1175 10.4297 16.1175C8.7613 16.1175 6.64376 16.0518 5.38206 15.8711C4.80122 15.7889 3.80453 15.6501 3.08201 15.0037C2.65034 14.6185 2.352 14.0789 2.11949 13.2847C1.84532 12.3771 1.65448 11.1081 1.49698 8.99725C1.40531 7.72992 1.42198 5.66752 1.56365 4.562C1.77865 2.91027 2.6095 2.08318 4.38621 1.77272C5.21623 1.62487 6.33625 1.5181 7.39127 1.46882C8.23796 1.41132 9.64132 1.38668 10.4213 1.3949C11.2014 1.38668 12.6047 1.41954 13.4514 1.46882C14.5139 1.5181 15.6265 1.62487 16.4565 1.77272C18.2415 2.08318 19.0724 2.91849 19.2799 4.56282C19.4457 5.66752 19.4707 7.72992 19.3715 8.99807M15.0364 2.107C14.5798 4.12915 14.3973 5.05398 14.0231 6.51761C13.6664 7.92622 13.3839 9.2264 12.9106 9.85637C12.4214 10.4946 11.773 10.6342 11.333 10.6826C11.1005 10.7073 10.9347 10.7155 10.4447 10.7237C10.1455 10.7293 9.84621 10.7156 9.54882 10.6826C9.10881 10.6334 8.45296 10.4946 7.97212 9.85637C7.49044 9.2264 7.21627 7.92622 6.8596 6.51844C6.46792 5.06219 6.29458 4.12833 5.82957 2.10782C5.82957 2.10782 5.3729 2.12425 5.16539 2.14068C4.89122 2.1571 4.67538 2.18174 4.44288 2.2146C4.72872 6.62685 5.01956 11.3143 5.38123 15.4629C6.04208 15.5448 6.70697 15.5911 7.37294 15.6017C7.64795 14.5618 7.99629 13.1212 8.3788 12.5077C8.6938 12.0083 9.18381 11.9516 9.45799 11.9188C9.88966 11.8613 10.2547 11.8531 10.4288 11.8531C10.5955 11.8448 10.9597 11.8531 11.3997 11.9188C11.6747 11.9598 12.1639 12.0091 12.4789 12.5077C12.8706 13.1212 13.2097 14.561 13.4839 15.6008C13.4839 15.6008 13.7822 15.5926 14.4548 15.5598C14.7964 15.545 15.1381 15.5121 15.4765 15.4612C15.8581 11.0342 16.1306 6.64985 16.4148 2.2146C16.1815 2.18174 15.9665 2.1571 15.6923 2.14068C15.5006 2.12425 15.0364 2.10782 15.0364 2.10782V2.107Z" fill="#F5F5F5"/>
</svg>
