<svg width="25" height="13" viewBox="0 0 25 13" fill="none" xmlns="http://www.w3.org/2000/svg">
<path d="M12.6035 12.9357C19.2305 12.9357 24.6045 10.1781 24.6045 6.77695C24.6045 3.37381 19.2305 0.616211 12.6035 0.616211C5.97849 0.616211 0.604492 3.37381 0.604492 6.77695C0.604492 10.1781 5.97849 12.9357 12.6035 12.9357ZM14.8635 9.91345C14.6635 10.3786 14.3185 11.3709 13.5275 11.7679C13.2875 11.8872 12.9905 11.9423 12.7275 11.9533H12.6045C10.3905 11.9533 8.32849 11.6426 6.60249 11.1173L6.53649 11.0923C6.37649 11.0391 6.29649 10.965 6.29649 10.8737C6.29649 10.7946 6.33949 10.7334 6.39549 10.6783L6.50449 10.581C6.90449 10.2483 8.10249 9.37817 10.3625 8.50909C11.1555 8.20737 12.1485 7.82846 13.1875 7.60693C13.7955 7.48063 16.0555 7.1328 14.8625 9.91345M20.9245 3.7046C20.9675 3.63042 21.0245 3.56727 21.1275 3.56226C21.1835 3.55624 21.2595 3.56927 21.3755 3.64245C22.7845 4.51153 23.6205 5.59913 23.6205 6.77494C23.6205 8.89802 20.8965 10.7244 17.0005 11.5213C16.7525 11.5714 16.5845 11.5694 16.5295 11.5063C16.4895 11.4682 16.4795 11.4 16.5295 11.3158C16.5587 11.2637 16.5936 11.2149 16.6335 11.1705C18.7535 8.66446 20.3695 4.96662 20.8285 3.90007C20.8635 3.82589 20.8965 3.75271 20.9245 3.7046ZM10.3815 3.62541C10.5815 3.1613 10.9265 2.16792 11.7165 1.77498C11.9565 1.6547 12.2535 1.59656 12.5165 1.58954C12.5775 1.58753 12.6205 1.58954 12.6365 1.58954C14.8535 1.58954 16.9125 1.89627 18.6405 2.42454C18.6535 2.43055 18.6935 2.44458 18.7065 2.4496C18.8665 2.50373 18.9465 2.5769 18.9465 2.66812C18.9465 2.74731 18.9045 2.80545 18.8485 2.86158C18.8131 2.89507 18.7764 2.92717 18.7385 2.95781C18.3415 3.29362 17.1405 4.16169 14.8805 5.03077C14.0855 5.3355 13.0945 5.7114 12.0585 5.93193C11.4485 6.06224 9.18849 6.40706 10.3815 3.62641M8.20449 2.02859C8.45449 1.98047 8.61949 1.98047 8.68049 2.04363C8.71549 2.08372 8.72549 2.14988 8.67849 2.23408C8.6486 2.28486 8.61377 2.33254 8.57449 2.37642C6.45449 4.88542 4.83749 8.58026 4.37649 9.64982C4.34757 9.71645 4.31553 9.78168 4.28049 9.84529C4.24049 9.91846 4.18149 9.98161 4.08049 9.98763C4.02449 9.99264 3.94549 9.9766 3.82949 9.90643C2.42149 9.03735 1.58449 7.95076 1.58449 6.77494C1.58449 4.65186 4.30849 2.8255 8.20449 2.02859Z" fill="#F0F0F0"/>
</svg>
